# MagicaVoxel @ Ephtracy

# group
o 

# material
mtllib bird_level_02.mtl
usemtl palette

# normals
vn -1 0 0
vn 1 0 0
vn 0 0 1
vn 0 0 -1
vn 0 -1 0
vn 0 1 0

# texcoords
vt 0.00195313 0.5
vt 0.0332031 0.5
vt 0.0605469 0.5
vt 0.162109 0.5

# verts
v -0.5 0.6 -2.98023e-08
v -0.5 0.6 -0.1
v -0.5 0.7 -2.98023e-08
v -0.5 0.7 -0.1
v -0.4 0.3 0.3
v -0.4 0.3 0.2
v -0.4 0.3 -2.98023e-08
v -0.4 0.3 -0.1
v -0.4 0.3 -0.3
v -0.4 0.3 -0.4
v -0.4 0.5 0.3
v -0.4 0.5 0.2
v -0.4 0.5 -0.3
v -0.4 0.5 -0.4
v -0.4 0.6 -2.98023e-08
v -0.4 0.6 -0.1
v -0.3 0.3 0.1
v -0.3 0.3 -2.98023e-08
v -0.3 0.3 -0.1
v -0.3 0.3 -0.2
v -0.3 0.6 0.1
v -0.3 0.6 -2.98023e-08
v -0.3 0.6 -0.1
v -0.3 0.6 -0.2
v -0.2 0.3 0.2
v -0.2 0.3 0.1
v -0.2 0.3 -0.2
v -0.2 0.3 -0.3
v -0.2 0.5 0.2
v -0.2 0.5 -0.3
v -0.2 0.6 0.2
v -0.2 0.6 0.1
v -0.2 0.6 -0.2
v -0.2 0.6 -0.3
v -0.1 0.6 0.2
v -0.1 0.6 -0.3
v -0.1 0.7 0.2
v -0.1 0.7 -0.3
v -0.1 1.1 0.2
v -0.1 1.1 -0.3
v 5.96046e-08 0 0.3
v 5.96046e-08 0 -2.98023e-08
v 5.96046e-08 0 -0.1
v 5.96046e-08 0 -0.4
v 5.96046e-08 0.1 0.3
v 5.96046e-08 0.1 0.2
v 5.96046e-08 0.1 0.1
v 5.96046e-08 0.1 -2.98023e-08
v 5.96046e-08 0.1 -0.1
v 5.96046e-08 0.1 -0.2
v 5.96046e-08 0.1 -0.3
v 5.96046e-08 0.1 -0.4
v 5.96046e-08 0.3 0.2
v 5.96046e-08 0.3 0.1
v 5.96046e-08 0.3 -0.2
v 5.96046e-08 0.3 -0.3
v 0.1 1.1 -2.98023e-08
v 0.1 1.1 -0.1
v 0.1 1.2 -2.98023e-08
v 0.1 1.2 -0.1
v 0.2 1.2 -2.98023e-08
v 0.2 1.2 -0.1
v 0.2 1.3 -2.98023e-08
v 0.2 1.3 -0.1
v 0.3 1.3 -2.98023e-08
v 0.3 1.3 -0.1
v 0.3 1.4 -2.98023e-08
v 0.3 1.4 -0.1
v -0.4 0.6 -2.98023e-08
v -0.4 0.6 -0.1
v -0.4 0.7 -2.98023e-08
v -0.4 0.7 -0.1
v 0.1 0.1 0.2
v 0.1 0.1 0.1
v 0.1 0.1 -0.2
v 0.1 0.1 -0.3
v 0.1 0.3 0.2
v 0.1 0.3 0.1
v 0.1 0.3 -0.2
v 0.1 0.3 -0.3
v 0.2 0 0.2
v 0.2 0 0.1
v 0.2 0 -0.2
v 0.2 0 -0.3
v 0.2 0.1 0.2
v 0.2 0.1 0.1
v 0.2 0.1 -0.2
v 0.2 0.1 -0.3
v 0.3 0 0.3
v 0.3 0 0.2
v 0.3 0 0.1
v 0.3 0 -2.98023e-08
v 0.3 0 -0.1
v 0.3 0 -0.2
v 0.3 0 -0.3
v 0.3 0 -0.4
v 0.3 0.1 0.3
v 0.3 0.1 0.2
v 0.3 0.1 0.1
v 0.3 0.1 -2.98023e-08
v 0.3 0.1 -0.1
v 0.3 0.1 -0.2
v 0.3 0.1 -0.3
v 0.3 0.1 -0.4
v 0.3 0.3 0.3
v 0.3 0.3 0.2
v 0.3 0.3 -0.3
v 0.3 0.3 -0.4
v 0.3 0.5 0.3
v 0.3 0.5 0.2
v 0.3 0.5 -0.3
v 0.3 0.5 -0.4
v 0.4 0.3 0.2
v 0.4 0.3 -0.3
v 0.4 0.6 0.2
v 0.4 0.6 -0.3
v 0.4 0.7 0.2
v 0.4 0.7 0.1
v 0.4 0.7 -0.2
v 0.4 0.7 -0.3
v 0.4 0.8 0.1
v 0.4 0.8 -0.2
v 0.4 1.1 0.2
v 0.4 1.1 -2.98023e-08
v 0.4 1.1 -0.1
v 0.4 1.1 -0.3
v 0.4 1.4 -2.98023e-08
v 0.4 1.4 -0.1
v 0.5 0.7 0.1
v 0.5 0.7 -0.2
v 0.5 0.8 0.1
v 0.5 0.8 -0.2
v -0.4 0.3 0.3
v -0.4 0.5 0.3
v 5.96046e-08 0 0.3
v 5.96046e-08 0.1 0.3
v 0.3 0 0.3
v 0.3 0.1 0.3
v 0.3 0.3 0.3
v 0.3 0.5 0.3
v -0.2 0.5 0.2
v -0.2 0.6 0.2
v -0.1 0.6 0.2
v -0.1 0.7 0.2
v -0.1 1.1 0.2
v 5.96046e-08 0.1 0.2
v 5.96046e-08 0.3 0.2
v 0.1 0.1 0.2
v 0.1 0.3 0.2
v 0.1 0.8 0.2
v 0.1 0.9 0.2
v 0.1 1 0.2
v 0.2 0.9 0.2
v 0.2 1 0.2
v 0.3 0.3 0.2
v 0.3 0.5 0.2
v 0.3 0.8 0.2
v 0.3 1 0.2
v 0.4 0.3 0.2
v 0.4 0.6 0.2
v 0.4 0.7 0.2
v 0.4 1.1 0.2
v -0.3 0.3 0.1
v -0.3 0.6 0.1
v -0.2 0.3 0.1
v -0.2 0.6 0.1
v 0.2 0 0.1
v 0.2 0.1 0.1
v 0.3 0 0.1
v 0.3 0.1 0.1
v 0.4 0.7 0.1
v 0.4 0.8 0.1
v 0.5 0.7 0.1
v 0.5 0.8 0.1
v -0.5 0.6 -2.98023e-08
v -0.5 0.7 -2.98023e-08
v -0.4 0.3 -2.98023e-08
v -0.4 0.6 -2.98023e-08
v -0.4 0.7 -2.98023e-08
v -0.3 0.3 -2.98023e-08
v -0.3 0.6 -2.98023e-08
v 0.1 1.1 -2.98023e-08
v 0.1 1.2 -2.98023e-08
v 0.2 1.2 -2.98023e-08
v 0.2 1.3 -2.98023e-08
v 0.3 1.3 -2.98023e-08
v 0.3 1.4 -2.98023e-08
v 0.4 1.1 -2.98023e-08
v 0.4 1.4 -2.98023e-08
v 5.96046e-08 0 -0.1
v 5.96046e-08 0.1 -0.1
v 0.3 0 -0.1
v 0.3 0.1 -0.1
v 5.96046e-08 0.1 -0.2
v 5.96046e-08 0.3 -0.2
v 0.1 0.1 -0.2
v 0.1 0.3 -0.2
v -0.4 0.3 -0.3
v -0.4 0.5 -0.3
v -0.2 0.3 -0.3
v -0.2 0.5 -0.3
v 0.2 0 -0.3
v 0.2 0.1 -0.3
v 0.3 0 -0.3
v 0.3 0.1 -0.3
v -0.4 0.3 0.2
v -0.4 0.5 0.2
v -0.2 0.3 0.2
v -0.2 0.5 0.2
v 0.2 0 0.2
v 0.2 0.1 0.2
v 0.3 0 0.2
v 0.3 0.1 0.2
v 5.96046e-08 0.1 0.1
v 5.96046e-08 0.3 0.1
v 0.1 0.1 0.1
v 0.1 0.3 0.1
v 5.96046e-08 0 -2.98023e-08
v 5.96046e-08 0.1 -2.98023e-08
v 0.3 0 -2.98023e-08
v 0.3 0.1 -2.98023e-08
v -0.5 0.6 -0.1
v -0.5 0.7 -0.1
v -0.4 0.3 -0.1
v -0.4 0.6 -0.1
v -0.4 0.7 -0.1
v -0.3 0.3 -0.1
v -0.3 0.6 -0.1
v 0.1 1.1 -0.1
v 0.1 1.2 -0.1
v 0.2 1.2 -0.1
v 0.2 1.3 -0.1
v 0.3 1.3 -0.1
v 0.3 1.4 -0.1
v 0.4 1.1 -0.1
v 0.4 1.4 -0.1
v -0.3 0.3 -0.2
v -0.3 0.6 -0.2
v -0.2 0.3 -0.2
v -0.2 0.6 -0.2
v 0.2 0 -0.2
v 0.2 0.1 -0.2
v 0.3 0 -0.2
v 0.3 0.1 -0.2
v 0.4 0.7 -0.2
v 0.4 0.8 -0.2
v 0.5 0.7 -0.2
v 0.5 0.8 -0.2
v -0.2 0.5 -0.3
v -0.2 0.6 -0.3
v -0.1 0.6 -0.3
v -0.1 0.7 -0.3
v -0.1 1.1 -0.3
v 5.96046e-08 0.1 -0.3
v 5.96046e-08 0.3 -0.3
v 0.1 0.1 -0.3
v 0.1 0.3 -0.3
v 0.1 0.8 -0.3
v 0.1 0.9 -0.3
v 0.1 1 -0.3
v 0.2 0.9 -0.3
v 0.2 1 -0.3
v 0.3 0.3 -0.3
v 0.3 0.5 -0.3
v 0.3 0.8 -0.3
v 0.3 1 -0.3
v 0.4 0.3 -0.3
v 0.4 0.6 -0.3
v 0.4 0.7 -0.3
v 0.4 1.1 -0.3
v -0.4 0.3 -0.4
v -0.4 0.5 -0.4
v 5.96046e-08 0 -0.4
v 5.96046e-08 0.1 -0.4
v 0.3 0 -0.4
v 0.3 0.1 -0.4
v 0.3 0.3 -0.4
v 0.3 0.5 -0.4
v 5.96046e-08 0 0.3
v 0.3 0 0.3
v 0.2 0 0.2
v 0.3 0 0.2
v 0.2 0 0.1
v 0.3 0 0.1
v 5.96046e-08 0 -2.98023e-08
v 0.3 0 -2.98023e-08
v 5.96046e-08 0 -0.1
v 0.3 0 -0.1
v 0.2 0 -0.2
v 0.3 0 -0.2
v 0.2 0 -0.3
v 0.3 0 -0.3
v 5.96046e-08 0 -0.4
v 0.3 0 -0.4
v -0.4 0.3 0.3
v 0.3 0.3 0.3
v -0.4 0.3 0.2
v -0.2 0.3 0.2
v 5.96046e-08 0.3 0.2
v 0.1 0.3 0.2
v 0.3 0.3 0.2
v 0.4 0.3 0.2
v -0.3 0.3 0.1
v -0.2 0.3 0.1
v 5.96046e-08 0.3 0.1
v 0.1 0.3 0.1
v -0.4 0.3 -2.98023e-08
v -0.3 0.3 -2.98023e-08
v -0.4 0.3 -0.1
v -0.3 0.3 -0.1
v -0.3 0.3 -0.2
v -0.2 0.3 -0.2
v 5.96046e-08 0.3 -0.2
v 0.1 0.3 -0.2
v -0.4 0.3 -0.3
v -0.2 0.3 -0.3
v 5.96046e-08 0.3 -0.3
v 0.1 0.3 -0.3
v 0.3 0.3 -0.3
v 0.4 0.3 -0.3
v -0.4 0.3 -0.4
v 0.3 0.3 -0.4
v -0.5 0.6 -2.98023e-08
v -0.4 0.6 -2.98023e-08
v -0.5 0.6 -0.1
v -0.4 0.6 -0.1
v 0.4 0.7 0.1
v 0.5 0.7 0.1
v 0.4 0.7 -0.2
v 0.5 0.7 -0.2
v 5.96046e-08 0.1 0.3
v 0.3 0.1 0.3
v 5.96046e-08 0.1 0.2
v 0.1 0.1 0.2
v 0.2 0.1 0.2
v 0.3 0.1 0.2
v 5.96046e-08 0.1 0.1
v 0.1 0.1 0.1
v 0.2 0.1 0.1
v 0.3 0.1 0.1
v 5.96046e-08 0.1 -2.98023e-08
v 0.3 0.1 -2.98023e-08
v 5.96046e-08 0.1 -0.1
v 0.3 0.1 -0.1
v 5.96046e-08 0.1 -0.2
v 0.1 0.1 -0.2
v 0.2 0.1 -0.2
v 0.3 0.1 -0.2
v 5.96046e-08 0.1 -0.3
v 0.1 0.1 -0.3
v 0.2 0.1 -0.3
v 0.3 0.1 -0.3
v 5.96046e-08 0.1 -0.4
v 0.3 0.1 -0.4
v -0.4 0.5 0.3
v 0.3 0.5 0.3
v -0.4 0.5 0.2
v -0.2 0.5 0.2
v 0.3 0.5 0.2
v -0.4 0.5 -0.3
v -0.2 0.5 -0.3
v 0.3 0.5 -0.3
v -0.4 0.5 -0.4
v 0.3 0.5 -0.4
v -0.2 0.6 0.2
v -0.1 0.6 0.2
v -0.3 0.6 0.1
v -0.2 0.6 0.1
v -0.4 0.6 -2.98023e-08
v -0.3 0.6 -2.98023e-08
v -0.4 0.6 -0.1
v -0.3 0.6 -0.1
v -0.3 0.6 -0.2
v -0.2 0.6 -0.2
v -0.2 0.6 -0.3
v -0.1 0.6 -0.3
v -0.5 0.7 -2.98023e-08
v -0.4 0.7 -2.98023e-08
v -0.5 0.7 -0.1
v -0.4 0.7 -0.1
v 0.4 0.8 0.1
v 0.5 0.8 0.1
v 0.4 0.8 -0.2
v 0.5 0.8 -0.2
v -0.1 1.1 0.2
v 0.4 1.1 0.2
v 0.1 1.1 -2.98023e-08
v 0.4 1.1 -2.98023e-08
v 0.1 1.1 -0.1
v 0.4 1.1 -0.1
v -0.1 1.1 -0.3
v 0.4 1.1 -0.3
v 0.1 1.2 -2.98023e-08
v 0.2 1.2 -2.98023e-08
v 0.1 1.2 -0.1
v 0.2 1.2 -0.1
v 0.2 1.3 -2.98023e-08
v 0.3 1.3 -2.98023e-08
v 0.2 1.3 -0.1
v 0.3 1.3 -0.1
v 0.3 1.4 -2.98023e-08
v 0.4 1.4 -2.98023e-08
v 0.3 1.4 -0.1
v 0.4 1.4 -0.1

# faces
f 3/4/1 2/4/1 1/4/1
f 4/4/1 2/4/1 3/4/1
f 11/3/1 6/3/1 5/3/1
f 12/3/1 6/3/1 11/3/1
f 13/3/1 10/3/1 9/3/1
f 14/3/1 10/3/1 13/3/1
f 15/3/1 8/3/1 7/3/1
f 16/3/1 8/3/1 15/3/1
f 21/3/1 18/3/1 17/3/1
f 22/3/1 18/3/1 21/3/1
f 23/3/1 20/3/1 19/3/1
f 24/3/1 20/3/1 23/3/1
f 29/3/1 26/3/1 25/3/1
f 30/3/1 28/3/1 27/3/1
f 31/3/1 26/3/1 29/3/1
f 32/3/1 26/3/1 31/3/1
f 33/3/1 30/3/1 27/3/1
f 34/3/1 30/3/1 33/3/1
f 37/4/1 36/4/1 35/4/1
f 38/4/1 36/4/1 37/4/1
f 39/3/1 38/3/1 37/3/1
f 40/3/1 38/3/1 39/3/1
f 45/2/1 42/2/1 41/2/1
f 46/2/1 42/2/1 45/2/1
f 47/2/1 42/2/1 46/2/1
f 48/2/1 42/2/1 47/2/1
f 49/2/1 44/2/1 43/2/1
f 50/2/1 44/2/1 49/2/1
f 51/2/1 44/2/1 50/2/1
f 52/2/1 44/2/1 51/2/1
f 53/2/1 47/2/1 46/2/1
f 54/2/1 47/2/1 53/2/1
f 55/2/1 51/2/1 50/2/1
f 56/2/1 51/2/1 55/2/1
f 59/4/1 58/4/1 57/4/1
f 60/4/1 58/4/1 59/4/1
f 63/4/1 62/4/1 61/4/1
f 64/4/1 62/4/1 63/4/1
f 67/4/1 66/4/1 65/4/1
f 68/4/1 66/4/1 67/4/1
f 69/4/2 70/4/2 71/4/2
f 71/4/2 70/4/2 72/4/2
f 73/2/2 74/2/2 77/2/2
f 77/2/2 74/2/2 78/2/2
f 75/2/2 76/2/2 79/2/2
f 79/2/2 76/2/2 80/2/2
f 81/2/2 82/2/2 85/2/2
f 85/2/2 82/2/2 86/2/2
f 83/2/2 84/2/2 87/2/2
f 87/2/2 84/2/2 88/2/2
f 89/2/2 90/2/2 97/2/2
f 97/2/2 90/2/2 98/2/2
f 91/2/2 92/2/2 99/2/2
f 99/2/2 92/2/2 100/2/2
f 93/2/2 94/2/2 101/2/2
f 101/2/2 94/2/2 102/2/2
f 95/2/2 96/2/2 103/2/2
f 103/2/2 96/2/2 104/2/2
f 105/3/2 106/3/2 109/3/2
f 109/3/2 106/3/2 110/3/2
f 107/3/2 108/3/2 111/3/2
f 111/3/2 108/3/2 112/3/2
f 113/3/2 114/3/2 115/3/2
f 115/3/2 114/3/2 116/3/2
f 115/4/2 116/4/2 117/4/2
f 117/4/2 116/4/2 118/4/2
f 118/4/2 116/4/2 119/4/2
f 119/4/2 116/4/2 120/4/2
f 117/3/2 118/3/2 121/3/2
f 119/3/2 120/3/2 122/3/2
f 117/3/2 121/3/2 123/3/2
f 121/3/2 122/3/2 123/3/2
f 123/3/2 122/3/2 124/3/2
f 124/3/2 122/3/2 125/3/2
f 122/3/2 120/3/2 126/3/2
f 125/3/2 122/3/2 126/3/2
f 124/4/2 125/4/2 127/4/2
f 127/4/2 125/4/2 128/4/2
f 129/2/2 130/2/2 131/2/2
f 131/2/2 130/2/2 132/2/2
f 137/2/3 136/2/3 135/2/3
f 138/2/3 136/2/3 137/2/3
f 139/3/3 134/3/3 133/3/3
f 140/3/3 134/3/3 139/3/3
f 143/3/3 142/3/3 141/3/3
f 148/2/3 147/2/3 146/2/3
f 149/2/3 147/2/3 148/2/3
f 150/3/3 145/3/3 144/3/3
f 151/3/3 145/3/3 150/3/3
f 152/3/3 145/3/3 151/3/3
f 153/1/3 151/1/3 150/1/3
f 153/4/3 152/4/3 151/4/3
f 154/3/3 145/3/3 152/3/3
f 154/4/3 152/4/3 153/4/3
f 156/3/3 143/3/3 141/3/3
f 157/1/3 153/1/3 150/1/3
f 157/3/3 150/3/3 144/3/3
f 157/1/3 154/1/3 153/1/3
f 158/3/3 145/3/3 154/3/3
f 158/1/3 154/1/3 157/1/3
f 159/3/3 156/3/3 155/3/3
f 160/4/3 144/4/3 143/4/3
f 160/3/3 156/3/3 159/3/3
f 160/3/3 143/3/3 156/3/3
f 161/3/3 157/3/3 144/3/3
f 161/4/3 144/4/3 160/4/3
f 161/3/3 158/3/3 157/3/3
f 162/3/3 145/3/3 158/3/3
f 162/3/3 158/3/3 161/3/3
f 165/3/3 164/3/3 163/3/3
f 166/3/3 164/3/3 165/3/3
f 169/2/3 168/2/3 167/2/3
f 170/2/3 168/2/3 169/2/3
f 173/2/3 172/2/3 171/2/3
f 174/2/3 172/2/3 173/2/3
f 178/4/3 176/4/3 175/4/3
f 179/4/3 176/4/3 178/4/3
f 180/3/3 178/3/3 177/3/3
f 181/3/3 178/3/3 180/3/3
f 184/4/3 183/4/3 182/4/3
f 186/4/3 185/4/3 184/4/3
f 188/4/3 184/4/3 182/4/3
f 188/4/3 187/4/3 186/4/3
f 188/4/3 186/4/3 184/4/3
f 189/4/3 187/4/3 188/4/3
f 192/2/3 191/2/3 190/2/3
f 193/2/3 191/2/3 192/2/3
f 196/2/3 195/2/3 194/2/3
f 197/2/3 195/2/3 196/2/3
f 200/3/3 199/3/3 198/3/3
f 201/3/3 199/3/3 200/3/3
f 204/2/3 203/2/3 202/2/3
f 205/2/3 203/2/3 204/2/3
f 206/3/4 207/3/4 208/3/4
f 208/3/4 207/3/4 209/3/4
f 210/2/4 211/2/4 212/2/4
f 212/2/4 211/2/4 213/2/4
f 214/2/4 215/2/4 216/2/4
f 216/2/4 215/2/4 217/2/4
f 218/2/4 219/2/4 220/2/4
f 220/2/4 219/2/4 221/2/4
f 222/4/4 223/4/4 225/4/4
f 225/4/4 223/4/4 226/4/4
f 224/3/4 225/3/4 227/3/4
f 227/3/4 225/3/4 228/3/4
f 229/4/4 230/4/4 231/4/4
f 231/4/4 232/4/4 233/4/4
f 229/4/4 231/4/4 235/4/4
f 233/4/4 234/4/4 235/4/4
f 231/4/4 233/4/4 235/4/4
f 235/4/4 234/4/4 236/4/4
f 237/3/4 238/3/4 239/3/4
f 239/3/4 238/3/4 240/3/4
f 241/2/4 242/2/4 243/2/4
f 243/2/4 242/2/4 244/2/4
f 245/2/4 246/2/4 247/2/4
f 247/2/4 246/2/4 248/2/4
f 249/3/4 250/3/4 251/3/4
f 254/2/4 255/2/4 256/2/4
f 256/2/4 255/2/4 257/2/4
f 252/3/4 253/3/4 258/3/4
f 258/3/4 253/3/4 259/3/4
f 259/3/4 253/3/4 260/3/4
f 258/1/4 259/1/4 261/1/4
f 259/4/4 260/4/4 261/4/4
f 260/3/4 253/3/4 262/3/4
f 261/4/4 260/4/4 262/4/4
f 249/3/4 251/3/4 264/3/4
f 258/1/4 261/1/4 265/1/4
f 252/3/4 258/3/4 265/3/4
f 261/1/4 262/1/4 265/1/4
f 262/3/4 253/3/4 266/3/4
f 265/1/4 262/1/4 266/1/4
f 263/3/4 264/3/4 267/3/4
f 251/4/4 252/4/4 268/4/4
f 267/3/4 264/3/4 268/3/4
f 264/3/4 251/3/4 268/3/4
f 252/3/4 265/3/4 269/3/4
f 268/4/4 252/4/4 269/4/4
f 265/3/4 266/3/4 269/3/4
f 266/3/4 253/3/4 270/3/4
f 269/3/4 266/3/4 270/3/4
f 273/2/4 274/2/4 275/2/4
f 275/2/4 274/2/4 276/2/4
f 271/3/4 272/3/4 277/3/4
f 277/3/4 272/3/4 278/3/4
f 281/2/5 280/2/5 279/2/5
f 282/2/5 280/2/5 281/2/5
f 283/2/5 281/2/5 279/2/5
f 285/2/5 283/2/5 279/2/5
f 285/2/5 284/2/5 283/2/5
f 286/2/5 284/2/5 285/2/5
f 289/2/5 288/2/5 287/2/5
f 290/2/5 288/2/5 289/2/5
f 291/2/5 289/2/5 287/2/5
f 293/2/5 291/2/5 287/2/5
f 293/2/5 292/2/5 291/2/5
f 294/2/5 292/2/5 293/2/5
f 297/3/5 296/3/5 295/3/5
f 298/3/5 296/3/5 297/3/5
f 299/3/5 296/3/5 298/3/5
f 300/3/5 296/3/5 299/3/5
f 301/3/5 296/3/5 300/3/5
f 304/3/5 299/3/5 298/3/5
f 305/3/5 299/3/5 304/3/5
f 306/3/5 302/3/5 301/3/5
f 306/3/5 301/3/5 300/3/5
f 308/3/5 305/3/5 304/3/5
f 308/3/5 306/3/5 305/3/5
f 308/3/5 304/3/5 303/3/5
f 309/3/5 308/3/5 307/3/5
f 310/3/5 306/3/5 308/3/5
f 310/3/5 308/3/5 309/3/5
f 311/3/5 306/3/5 310/3/5
f 312/3/5 306/3/5 311/3/5
f 313/3/5 306/3/5 312/3/5
f 314/3/5 302/3/5 306/3/5
f 314/3/5 306/3/5 313/3/5
f 316/3/5 313/3/5 312/3/5
f 317/3/5 313/3/5 316/3/5
f 318/3/5 302/3/5 314/3/5
f 319/3/5 302/3/5 318/3/5
f 320/3/5 302/3/5 319/3/5
f 321/3/5 317/3/5 316/3/5
f 321/3/5 316/3/5 315/3/5
f 321/3/5 319/3/5 318/3/5
f 321/3/5 318/3/5 317/3/5
f 322/3/5 319/3/5 321/3/5
f 325/4/5 324/4/5 323/4/5
f 326/4/5 324/4/5 325/4/5
f 329/2/5 328/2/5 327/2/5
f 330/2/5 328/2/5 329/2/5
f 331/2/6 332/2/6 333/2/6
f 333/2/6 332/2/6 334/2/6
f 334/2/6 332/2/6 335/2/6
f 335/2/6 332/2/6 336/2/6
f 334/2/6 335/2/6 338/2/6
f 338/2/6 335/2/6 339/2/6
f 337/2/6 338/2/6 341/2/6
f 339/2/6 340/2/6 341/2/6
f 338/2/6 339/2/6 341/2/6
f 341/2/6 340/2/6 342/2/6
f 343/2/6 344/2/6 345/2/6
f 345/2/6 344/2/6 346/2/6
f 346/2/6 344/2/6 347/2/6
f 347/2/6 344/2/6 348/2/6
f 346/2/6 347/2/6 350/2/6
f 350/2/6 347/2/6 351/2/6
f 349/2/6 350/2/6 353/2/6
f 351/2/6 352/2/6 353/2/6
f 350/2/6 351/2/6 353/2/6
f 353/2/6 352/2/6 354/2/6
f 355/3/6 356/3/6 357/3/6
f 357/3/6 356/3/6 358/3/6
f 358/3/6 356/3/6 359/3/6
f 360/3/6 361/3/6 363/3/6
f 361/3/6 362/3/6 363/3/6
f 363/3/6 362/3/6 364/3/6
f 365/3/6 366/3/6 368/3/6
f 367/3/6 368/3/6 370/3/6
f 369/3/6 370/3/6 371/3/6
f 370/3/6 368/3/6 372/3/6
f 371/3/6 370/3/6 372/3/6
f 372/3/6 368/3/6 373/3/6
f 368/3/6 366/3/6 374/3/6
f 373/3/6 368/3/6 374/3/6
f 374/3/6 366/3/6 375/3/6
f 375/3/6 366/3/6 376/3/6
f 377/4/6 378/4/6 379/4/6
f 379/4/6 378/4/6 380/4/6
f 381/2/6 382/2/6 383/2/6
f 383/2/6 382/2/6 384/2/6
f 385/3/6 386/3/6 387/3/6
f 387/3/6 386/3/6 388/3/6
f 385/3/6 387/3/6 389/3/6
f 385/3/6 389/3/6 391/3/6
f 389/3/6 390/3/6 391/3/6
f 391/3/6 390/3/6 392/3/6
f 393/4/6 394/4/6 395/4/6
f 395/4/6 394/4/6 396/4/6
f 397/4/6 398/4/6 399/4/6
f 399/4/6 398/4/6 400/4/6
f 401/4/6 402/4/6 403/4/6
f 403/4/6 402/4/6 404/4/6
