# MagicaVoxel @ Ephtracy

# group
o 

# material
mtllib bird_level_05.mtl
usemtl palette

# normals
vn -1 0 0
vn 1 0 0
vn 0 0 1
vn 0 0 -1
vn 0 -1 0
vn 0 1 0

# texcoords
vt 0.00195313 0.5
vt 0.0332031 0.5
vt 0.119141 0.5
vt 0.138672 0.5
vt 0.162109 0.5

# verts
v -0.7 0.6 -2.98023e-08
v -0.7 0.6 -0.1
v -0.7 0.9 -2.98023e-08
v -0.7 0.9 -0.1
v -0.6 0.5 0.3
v -0.6 0.5 0.2
v -0.6 0.5 -2.98023e-08
v -0.6 0.5 -0.1
v -0.6 0.5 -0.3
v -0.6 0.5 -0.4
v -0.6 0.6 -2.98023e-08
v -0.6 0.6 -0.1
v -0.6 0.7 0.3
v -0.6 0.7 0.2
v -0.6 0.7 -0.3
v -0.6 0.7 -0.4
v -0.5 0.4 0.3
v -0.5 0.4 0.2
v -0.5 0.4 -0.3
v -0.5 0.4 -0.4
v -0.5 0.5 0.3
v -0.5 0.5 0.2
v -0.5 0.5 -0.3
v -0.5 0.5 -0.4
v -0.4 0.3 0.3
v -0.4 0.3 0.2
v -0.4 0.3 -2.98023e-08
v -0.4 0.3 -0.1
v -0.4 0.3 -0.3
v -0.4 0.3 -0.4
v -0.4 0.4 0.3
v -0.4 0.4 0.2
v -0.4 0.4 -2.98023e-08
v -0.4 0.4 -0.1
v -0.4 0.4 -0.3
v -0.4 0.4 -0.4
v -0.4 0.5 -2.98023e-08
v -0.4 0.5 -0.1
v -0.3 0.3 0.1
v -0.3 0.3 -2.98023e-08
v -0.3 0.3 -0.1
v -0.3 0.3 -0.2
v -0.3 0.4 -2.98023e-08
v -0.3 0.4 -0.1
v -0.3 0.6 0.1
v -0.3 0.6 -2.98023e-08
v -0.3 0.6 -0.1
v -0.3 0.6 -0.2
v -0.2 0.3 0.2
v -0.2 0.3 0.1
v -0.2 0.3 -0.2
v -0.2 0.3 -0.3
v -0.2 0.6 0.2
v -0.2 0.6 0.1
v -0.2 0.6 -0.2
v -0.2 0.6 -0.3
v -0.1 0.6 0.2
v -0.1 0.6 -0.3
v -0.1 0.7 0.2
v -0.1 0.7 -0.3
v -0.1 1.1 0.2
v -0.1 1.1 -0.3
v 0 0 0.3
v 0 0 -2.98023e-08
v 0 0 -0.1
v 0 0 -0.4
v 0 0.1 0.3
v 0 0.1 0.2
v 0 0.1 0.1
v 0 0.1 -2.98023e-08
v 0 0.1 -0.1
v 0 0.1 -0.2
v 0 0.1 -0.3
v 0 0.1 -0.4
v 0 0.2 0.2
v 0 0.2 0.1
v 0 0.2 -0.2
v 0 0.2 -0.3
v 0 0.3 0.2
v 0 0.3 0.1
v 0 0.3 -0.2
v 0 0.3 -0.3
v 0.3 1.1 -2.98023e-08
v 0.3 1.1 -0.1
v 0.3 1.4 -2.98023e-08
v 0.3 1.4 -0.1
v 0.4 1.4 -2.98023e-08
v 0.4 1.4 -0.1
v 0.4 1.5 -2.98023e-08
v 0.4 1.5 -0.1
v -0.5 0.8 -2.98023e-08
v -0.5 0.8 -0.1
v -0.5 0.9 -2.98023e-08
v -0.5 0.9 -0.1
v -0.4 0.6 0.3
v -0.4 0.6 0.2
v -0.4 0.6 -0.3
v -0.4 0.6 -0.4
v -0.4 0.7 0.3
v -0.4 0.7 0.2
v -0.4 0.7 -2.98023e-08
v -0.4 0.7 -0.1
v -0.4 0.7 -0.3
v -0.4 0.7 -0.4
v -0.4 0.8 -2.98023e-08
v -0.4 0.8 -0.1
v -0.2 0.5 0.3
v -0.2 0.5 0.2
v -0.2 0.5 -0.3
v -0.2 0.5 -0.4
v -0.2 0.6 0.3
v -0.2 0.6 0.2
v -0.2 0.6 -2.98023e-08
v -0.2 0.6 -0.1
v -0.2 0.6 -0.3
v -0.2 0.6 -0.4
v -0.2 0.7 -2.98023e-08
v -0.2 0.7 -0.1
v 0.1 0.1 0.2
v 0.1 0.1 0.1
v 0.1 0.1 -0.2
v 0.1 0.1 -0.3
v 0.1 0.2 0.2
v 0.1 0.2 0.1
v 0.1 0.2 -0.2
v 0.1 0.2 -0.3
v 0.1 0.3 0.2
v 0.1 0.3 0.1
v 0.1 0.3 -0.2
v 0.1 0.3 -0.3
v 0.2 0 0.2
v 0.2 0 0.1
v 0.2 0 -0.2
v 0.2 0 -0.3
v 0.2 0.1 0.2
v 0.2 0.1 0.1
v 0.2 0.1 -0.2
v 0.2 0.1 -0.3
v 0.3 0 0.3
v 0.3 0 0.2
v 0.3 0 0.1
v 0.3 0 -2.98023e-08
v 0.3 0 -0.1
v 0.3 0 -0.2
v 0.3 0 -0.3
v 0.3 0 -0.4
v 0.3 0.1 0.3
v 0.3 0.1 0.2
v 0.3 0.1 0.1
v 0.3 0.1 -2.98023e-08
v 0.3 0.1 -0.1
v 0.3 0.1 -0.2
v 0.3 0.1 -0.3
v 0.3 0.1 -0.4
v 0.3 0.3 0.3
v 0.3 0.3 0.2
v 0.3 0.3 -0.3
v 0.3 0.3 -0.4
v 0.3 0.5 0.3
v 0.3 0.5 0.2
v 0.3 0.5 -0.3
v 0.3 0.5 -0.4
v 0.4 0.3 0.2
v 0.4 0.3 -0.3
v 0.4 0.5 -2.98023e-08
v 0.4 0.5 -0.1
v 0.4 0.6 0.2
v 0.4 0.6 -2.98023e-08
v 0.4 0.6 -0.1
v 0.4 0.6 -0.3
v 0.4 0.7 0.2
v 0.4 0.7 0.1
v 0.4 0.7 -0.2
v 0.4 0.7 -0.3
v 0.4 0.8 0.1
v 0.4 0.8 -0.2
v 0.4 1 -2.98023e-08
v 0.4 1 -0.1
v 0.4 1.1 0.2
v 0.4 1.1 -2.98023e-08
v 0.4 1.1 -0.1
v 0.4 1.1 -0.3
v 0.5 0.7 0.1
v 0.5 0.7 -0.2
v 0.5 0.8 0.1
v 0.5 0.8 -0.2
v 0.5 1 -2.98023e-08
v 0.5 1 -0.1
v 0.5 1.3 -2.98023e-08
v 0.5 1.3 -0.1
v 0.6 1.3 -2.98023e-08
v 0.6 1.3 -0.1
v 0.6 1.5 -2.98023e-08
v 0.6 1.5 -0.1
v -0.6 0.5 0.3
v -0.6 0.7 0.3
v -0.5 0.4 0.3
v -0.5 0.5 0.3
v -0.4 0.3 0.3
v -0.4 0.4 0.3
v -0.4 0.6 0.3
v -0.4 0.7 0.3
v -0.2 0.5 0.3
v -0.2 0.6 0.3
v -0.1 0.3 0.3
v -0.1 0.4 0.3
v 0 0 0.3
v 0 0.1 0.3
v 0 0.4 0.3
v 0 0.5 0.3
v 0.3 0 0.3
v 0.3 0.1 0.3
v 0.3 0.3 0.3
v 0.3 0.5 0.3
v -0.2 0.5 0.2
v -0.2 0.6 0.2
v -0.1 0.6 0.2
v -0.1 0.7 0.2
v -0.1 1.1 0.2
v 0 0.1 0.2
v 0 0.2 0.2
v 0 0.3 0.2
v 0 0.5 0.2
v 0.1 0.1 0.2
v 0.1 0.2 0.2
v 0.1 0.3 0.2
v 0.1 0.8 0.2
v 0.1 0.9 0.2
v 0.1 1 0.2
v 0.2 0.9 0.2
v 0.2 1 0.2
v 0.3 0.3 0.2
v 0.3 0.5 0.2
v 0.3 0.8 0.2
v 0.3 1 0.2
v 0.4 0.3 0.2
v 0.4 0.6 0.2
v 0.4 0.7 0.2
v 0.4 1.1 0.2
v -0.3 0.3 0.1
v -0.3 0.6 0.1
v -0.2 0.3 0.1
v -0.2 0.6 0.1
v 0.2 0 0.1
v 0.2 0.1 0.1
v 0.3 0 0.1
v 0.3 0.1 0.1
v 0.4 0.7 0.1
v 0.4 0.8 0.1
v 0.5 0.7 0.1
v 0.5 0.8 0.1
v -0.7 0.6 -2.98023e-08
v -0.7 0.9 -2.98023e-08
v -0.6 0.5 -2.98023e-08
v -0.6 0.6 -2.98023e-08
v -0.5 0.8 -2.98023e-08
v -0.5 0.9 -2.98023e-08
v -0.4 0.3 -2.98023e-08
v -0.4 0.4 -2.98023e-08
v -0.4 0.5 -2.98023e-08
v -0.4 0.7 -2.98023e-08
v -0.4 0.8 -2.98023e-08
v -0.3 0.3 -2.98023e-08
v -0.3 0.4 -2.98023e-08
v -0.3 0.6 -2.98023e-08
v -0.2 0.6 -2.98023e-08
v -0.2 0.7 -2.98023e-08
v 0.3 1.1 -2.98023e-08
v 0.3 1.4 -2.98023e-08
v 0.4 1 -2.98023e-08
v 0.4 1.1 -2.98023e-08
v 0.4 1.4 -2.98023e-08
v 0.4 1.5 -2.98023e-08
v 0.5 1 -2.98023e-08
v 0.5 1.3 -2.98023e-08
v 0.6 1.3 -2.98023e-08
v 0.6 1.5 -2.98023e-08
v 0 0 -0.1
v 0 0.1 -0.1
v 0.3 0 -0.1
v 0.3 0.1 -0.1
v 0 0.1 -0.2
v 0 0.2 -0.2
v 0 0.3 -0.2
v 0.1 0.1 -0.2
v 0.1 0.2 -0.2
v 0.1 0.3 -0.2
v -0.6 0.5 -0.3
v -0.6 0.7 -0.3
v -0.5 0.4 -0.3
v -0.5 0.5 -0.3
v -0.4 0.3 -0.3
v -0.4 0.4 -0.3
v -0.4 0.6 -0.3
v -0.4 0.7 -0.3
v -0.2 0.3 -0.3
v -0.2 0.6 -0.3
v 0.2 0 -0.3
v 0.2 0.1 -0.3
v 0.3 0 -0.3
v 0.3 0.1 -0.3
v -0.6 0.5 0.2
v -0.6 0.7 0.2
v -0.5 0.4 0.2
v -0.5 0.5 0.2
v -0.4 0.3 0.2
v -0.4 0.4 0.2
v -0.4 0.6 0.2
v -0.4 0.7 0.2
v -0.2 0.3 0.2
v -0.2 0.6 0.2
v 0.2 0 0.2
v 0.2 0.1 0.2
v 0.3 0 0.2
v 0.3 0.1 0.2
v 0 0.1 0.1
v 0 0.2 0.1
v 0 0.3 0.1
v 0.1 0.1 0.1
v 0.1 0.2 0.1
v 0.1 0.3 0.1
v 0 0 -2.98023e-08
v 0 0.1 -2.98023e-08
v 0.3 0 -2.98023e-08
v 0.3 0.1 -2.98023e-08
v -0.7 0.6 -0.1
v -0.7 0.9 -0.1
v -0.6 0.5 -0.1
v -0.6 0.6 -0.1
v -0.5 0.8 -0.1
v -0.5 0.9 -0.1
v -0.4 0.3 -0.1
v -0.4 0.4 -0.1
v -0.4 0.5 -0.1
v -0.4 0.7 -0.1
v -0.4 0.8 -0.1
v -0.3 0.3 -0.1
v -0.3 0.4 -0.1
v -0.3 0.6 -0.1
v -0.2 0.6 -0.1
v -0.2 0.7 -0.1
v 0.3 1.1 -0.1
v 0.3 1.4 -0.1
v 0.4 1 -0.1
v 0.4 1.1 -0.1
v 0.4 1.4 -0.1
v 0.4 1.5 -0.1
v 0.5 1 -0.1
v 0.5 1.3 -0.1
v 0.6 1.3 -0.1
v 0.6 1.5 -0.1
v -0.3 0.3 -0.2
v -0.3 0.6 -0.2
v -0.2 0.3 -0.2
v -0.2 0.6 -0.2
v 0.2 0 -0.2
v 0.2 0.1 -0.2
v 0.3 0 -0.2
v 0.3 0.1 -0.2
v 0.4 0.7 -0.2
v 0.4 0.8 -0.2
v 0.5 0.7 -0.2
v 0.5 0.8 -0.2
v -0.2 0.5 -0.3
v -0.2 0.6 -0.3
v -0.1 0.6 -0.3
v -0.1 0.7 -0.3
v -0.1 1.1 -0.3
v 0 0.1 -0.3
v 0 0.2 -0.3
v 0 0.3 -0.3
v 0 0.5 -0.3
v 0.1 0.1 -0.3
v 0.1 0.2 -0.3
v 0.1 0.3 -0.3
v 0.1 0.8 -0.3
v 0.1 0.9 -0.3
v 0.1 1 -0.3
v 0.2 0.9 -0.3
v 0.2 1 -0.3
v 0.3 0.3 -0.3
v 0.3 0.5 -0.3
v 0.3 0.8 -0.3
v 0.3 1 -0.3
v 0.4 0.3 -0.3
v 0.4 0.6 -0.3
v 0.4 0.7 -0.3
v 0.4 1.1 -0.3
v -0.6 0.5 -0.4
v -0.6 0.7 -0.4
v -0.5 0.4 -0.4
v -0.5 0.5 -0.4
v -0.4 0.3 -0.4
v -0.4 0.4 -0.4
v -0.4 0.6 -0.4
v -0.4 0.7 -0.4
v -0.2 0.5 -0.4
v -0.2 0.6 -0.4
v -0.1 0.3 -0.4
v -0.1 0.4 -0.4
v 0 0 -0.4
v 0 0.1 -0.4
v 0 0.4 -0.4
v 0 0.5 -0.4
v 0.3 0 -0.4
v 0.3 0.1 -0.4
v 0.3 0.3 -0.4
v 0.3 0.5 -0.4
v 0 0 0.3
v 0.3 0 0.3
v 0.2 0 0.2
v 0.3 0 0.2
v 0.2 0 0.1
v 0.3 0 0.1
v 0 0 -2.98023e-08
v 0.3 0 -2.98023e-08
v 0 0 -0.1
v 0.3 0 -0.1
v 0.2 0 -0.2
v 0.3 0 -0.2
v 0.2 0 -0.3
v 0.3 0 -0.3
v 0 0 -0.4
v 0.3 0 -0.4
v -0.4 0.3 0.3
v -0.1 0.3 0.3
v 0.3 0.3 0.3
v -0.4 0.3 0.2
v -0.2 0.3 0.2
v -0.1 0.3 0.2
v 0 0.3 0.2
v 0.1 0.3 0.2
v 0.3 0.3 0.2
v 0.4 0.3 0.2
v -0.3 0.3 0.1
v -0.2 0.3 0.1
v 0 0.3 0.1
v 0.1 0.3 0.1
v -0.4 0.3 -2.98023e-08
v -0.3 0.3 -2.98023e-08
v -0.4 0.3 -0.1
v -0.3 0.3 -0.1
v -0.3 0.3 -0.2
v -0.2 0.3 -0.2
v 0 0.3 -0.2
v 0.1 0.3 -0.2
v -0.4 0.3 -0.3
v -0.2 0.3 -0.3
v -0.1 0.3 -0.3
v 0 0.3 -0.3
v 0.1 0.3 -0.3
v 0.3 0.3 -0.3
v 0.4 0.3 -0.3
v -0.4 0.3 -0.4
v -0.1 0.3 -0.4
v 0.3 0.3 -0.4
v -0.5 0.4 0.3
v -0.4 0.4 0.3
v -0.5 0.4 0.2
v -0.4 0.4 0.2
v -0.5 0.4 -0.3
v -0.4 0.4 -0.3
v -0.5 0.4 -0.4
v -0.4 0.4 -0.4
v -0.6 0.5 0.3
v -0.5 0.5 0.3
v -0.6 0.5 0.2
v -0.5 0.5 0.2
v -0.6 0.5 -2.98023e-08
v -0.4 0.5 -2.98023e-08
v -0.6 0.5 -0.1
v -0.4 0.5 -0.1
v -0.6 0.5 -0.3
v -0.5 0.5 -0.3
v -0.6 0.5 -0.4
v -0.5 0.5 -0.4
v -0.7 0.6 -2.98023e-08
v -0.6 0.6 -2.98023e-08
v -0.7 0.6 -0.1
v -0.6 0.6 -0.1
v 0.4 0.7 0.1
v 0.5 0.7 0.1
v 0.4 0.7 -0.2
v 0.5 0.7 -0.2
v 0.4 1 -2.98023e-08
v 0.5 1 -2.98023e-08
v 0.4 1 -0.1
v 0.5 1 -0.1
v 0.5 1.3 -2.98023e-08
v 0.6 1.3 -2.98023e-08
v 0.5 1.3 -0.1
v 0.6 1.3 -0.1
v 0 0.1 0.3
v 0.3 0.1 0.3
v 0 0.1 0.2
v 0.1 0.1 0.2
v 0.2 0.1 0.2
v 0.3 0.1 0.2
v 0 0.1 0.1
v 0.1 0.1 0.1
v 0.2 0.1 0.1
v 0.3 0.1 0.1
v 0 0.1 -2.98023e-08
v 0.3 0.1 -2.98023e-08
v 0 0.1 -0.1
v 0.3 0.1 -0.1
v 0 0.1 -0.2
v 0.1 0.1 -0.2
v 0.2 0.1 -0.2
v 0.3 0.1 -0.2
v 0 0.1 -0.3
v 0.1 0.1 -0.3
v 0.2 0.1 -0.3
v 0.3 0.1 -0.3
v 0 0.1 -0.4
v 0.3 0.1 -0.4
v -0.2 0.5 0.3
v 0 0.5 0.3
v 0.3 0.5 0.3
v -0.2 0.5 0.2
v 0 0.5 0.2
v 0.3 0.5 0.2
v -0.2 0.5 -0.3
v 0 0.5 -0.3
v 0.3 0.5 -0.3
v -0.2 0.5 -0.4
v 0 0.5 -0.4
v 0.3 0.5 -0.4
v -0.4 0.6 0.3
v -0.2 0.6 0.3
v -0.4 0.6 0.2
v -0.2 0.6 0.2
v -0.1 0.6 0.2
v -0.3 0.6 0.1
v -0.2 0.6 0.1
v -0.3 0.6 -2.98023e-08
v -0.2 0.6 -2.98023e-08
v -0.3 0.6 -0.1
v -0.2 0.6 -0.1
v -0.3 0.6 -0.2
v -0.2 0.6 -0.2
v -0.4 0.6 -0.3
v -0.2 0.6 -0.3
v -0.1 0.6 -0.3
v -0.4 0.6 -0.4
v -0.2 0.6 -0.4
v -0.6 0.7 0.3
v -0.4 0.7 0.3
v -0.6 0.7 0.2
v -0.4 0.7 0.2
v -0.4 0.7 -2.98023e-08
v -0.2 0.7 -2.98023e-08
v -0.4 0.7 -0.1
v -0.2 0.7 -0.1
v -0.6 0.7 -0.3
v -0.4 0.7 -0.3
v -0.6 0.7 -0.4
v -0.4 0.7 -0.4
v 0.4 0.8 0.1
v 0.5 0.8 0.1
v -0.5 0.8 -2.98023e-08
v -0.4 0.8 -2.98023e-08
v -0.5 0.8 -0.1
v -0.4 0.8 -0.1
v 0.4 0.8 -0.2
v 0.5 0.8 -0.2
v -0.7 0.9 -2.98023e-08
v -0.5 0.9 -2.98023e-08
v -0.7 0.9 -0.1
v -0.5 0.9 -0.1
v -0.1 1.1 0.2
v 0.4 1.1 0.2
v 0.3 1.1 -2.98023e-08
v 0.4 1.1 -2.98023e-08
v 0.3 1.1 -0.1
v 0.4 1.1 -0.1
v -0.1 1.1 -0.3
v 0.4 1.1 -0.3
v 0.3 1.4 -2.98023e-08
v 0.4 1.4 -2.98023e-08
v 0.3 1.4 -0.1
v 0.4 1.4 -0.1
v 0.4 1.5 -2.98023e-08
v 0.6 1.5 -2.98023e-08
v 0.4 1.5 -0.1
v 0.6 1.5 -0.1

# faces
f 3/4/1 2/4/1 1/4/1
f 4/4/1 2/4/1 3/4/1
f 11/4/1 8/4/1 7/4/1
f 12/4/1 8/4/1 11/4/1
f 13/4/1 6/4/1 5/4/1
f 14/4/1 6/4/1 13/4/1
f 15/4/1 10/4/1 9/4/1
f 16/4/1 10/4/1 15/4/1
f 21/4/1 18/4/1 17/4/1
f 22/4/1 18/4/1 21/4/1
f 23/4/1 20/4/1 19/4/1
f 24/4/1 20/4/1 23/4/1
f 31/4/1 26/4/1 25/4/1
f 32/4/1 26/4/1 31/4/1
f 33/3/1 28/3/1 27/3/1
f 34/3/1 28/3/1 33/3/1
f 35/4/1 30/4/1 29/4/1
f 36/4/1 30/4/1 35/4/1
f 37/4/1 34/4/1 33/4/1
f 38/4/1 34/4/1 37/4/1
f 43/3/1 40/3/1 39/3/1
f 44/3/1 42/3/1 41/3/1
f 45/3/1 43/3/1 39/3/1
f 46/3/1 43/3/1 45/3/1
f 47/3/1 42/3/1 44/3/1
f 48/3/1 42/3/1 47/3/1
f 53/3/1 50/3/1 49/3/1
f 54/3/1 50/3/1 53/3/1
f 55/3/1 52/3/1 51/3/1
f 56/3/1 52/3/1 55/3/1
f 59/4/1 58/4/1 57/4/1
f 60/4/1 58/4/1 59/4/1
f 61/3/1 60/3/1 59/3/1
f 62/3/1 60/3/1 61/3/1
f 67/2/1 64/2/1 63/2/1
f 68/2/1 64/2/1 67/2/1
f 69/2/1 64/2/1 68/2/1
f 70/2/1 64/2/1 69/2/1
f 71/2/1 66/2/1 65/2/1
f 72/2/1 66/2/1 71/2/1
f 73/2/1 66/2/1 72/2/1
f 74/2/1 66/2/1 73/2/1
f 75/3/1 69/3/1 68/3/1
f 76/3/1 69/3/1 75/3/1
f 77/3/1 73/3/1 72/3/1
f 78/3/1 73/3/1 77/3/1
f 79/2/1 76/2/1 75/2/1
f 80/2/1 76/2/1 79/2/1
f 81/2/1 78/2/1 77/2/1
f 82/2/1 78/2/1 81/2/1
f 85/4/1 84/4/1 83/4/1
f 86/4/1 84/4/1 85/4/1
f 89/4/1 88/4/1 87/4/1
f 90/4/1 88/4/1 89/4/1
f 91/4/2 92/4/2 93/4/2
f 93/4/2 92/4/2 94/4/2
f 95/4/2 96/4/2 99/4/2
f 99/4/2 96/4/2 100/4/2
f 97/4/2 98/4/2 103/4/2
f 103/4/2 98/4/2 104/4/2
f 101/4/2 102/4/2 105/4/2
f 105/4/2 102/4/2 106/4/2
f 107/4/2 108/4/2 111/4/2
f 111/4/2 108/4/2 112/4/2
f 109/4/2 110/4/2 115/4/2
f 115/4/2 110/4/2 116/4/2
f 113/4/2 114/4/2 117/4/2
f 117/4/2 114/4/2 118/4/2
f 119/3/2 120/3/2 123/3/2
f 123/3/2 120/3/2 124/3/2
f 121/3/2 122/3/2 125/3/2
f 125/3/2 122/3/2 126/3/2
f 123/2/2 124/2/2 127/2/2
f 127/2/2 124/2/2 128/2/2
f 125/2/2 126/2/2 129/2/2
f 129/2/2 126/2/2 130/2/2
f 131/2/2 132/2/2 135/2/2
f 135/2/2 132/2/2 136/2/2
f 133/2/2 134/2/2 137/2/2
f 137/2/2 134/2/2 138/2/2
f 139/2/2 140/2/2 147/2/2
f 147/2/2 140/2/2 148/2/2
f 141/2/2 142/2/2 149/2/2
f 149/2/2 142/2/2 150/2/2
f 143/2/2 144/2/2 151/2/2
f 151/2/2 144/2/2 152/2/2
f 145/2/2 146/2/2 153/2/2
f 153/2/2 146/2/2 154/2/2
f 155/3/2 156/3/2 159/3/2
f 159/3/2 156/3/2 160/3/2
f 157/3/2 158/3/2 161/3/2
f 161/3/2 158/3/2 162/3/2
f 163/3/2 164/3/2 165/3/2
f 165/3/2 164/3/2 166/3/2
f 163/3/2 165/3/2 167/3/2
f 165/4/2 166/4/2 168/4/2
f 167/3/2 165/3/2 168/3/2
f 166/3/2 164/3/2 169/3/2
f 168/4/2 166/4/2 169/4/2
f 169/3/2 164/3/2 170/3/2
f 167/4/2 168/4/2 171/4/2
f 168/4/2 169/4/2 171/4/2
f 169/4/2 170/4/2 171/4/2
f 171/4/2 170/4/2 172/4/2
f 172/4/2 170/4/2 173/4/2
f 173/4/2 170/4/2 174/4/2
f 171/3/2 172/3/2 175/3/2
f 173/3/2 174/3/2 176/3/2
f 175/3/2 176/3/2 177/3/2
f 177/3/2 176/3/2 178/3/2
f 171/3/2 175/3/2 179/3/2
f 175/3/2 177/3/2 179/3/2
f 179/3/2 177/3/2 180/3/2
f 178/3/2 176/3/2 181/3/2
f 176/3/2 174/3/2 182/3/2
f 181/3/2 176/3/2 182/3/2
f 183/2/2 184/2/2 185/2/2
f 185/2/2 184/2/2 186/2/2
f 187/4/2 188/4/2 189/4/2
f 189/4/2 188/4/2 190/4/2
f 191/4/2 192/4/2 193/4/2
f 193/4/2 192/4/2 194/4/2
f 198/4/3 196/4/3 195/4/3
f 200/4/3 198/4/3 197/4/3
f 201/4/3 196/4/3 198/4/3
f 201/4/3 198/4/3 200/4/3
f 202/4/3 196/4/3 201/4/3
f 203/4/3 200/4/3 199/4/3
f 203/4/3 201/4/3 200/4/3
f 204/4/3 201/4/3 203/4/3
f 205/4/3 203/4/3 199/4/3
f 206/4/3 203/4/3 205/4/3
f 209/3/3 206/3/3 205/3/3
f 209/4/3 203/4/3 206/4/3
f 210/4/3 203/4/3 209/4/3
f 211/2/3 208/2/3 207/2/3
f 212/2/3 208/2/3 211/2/3
f 213/3/3 209/3/3 205/3/3
f 213/3/3 210/3/3 209/3/3
f 214/3/3 210/3/3 213/3/3
f 217/3/3 216/3/3 215/3/3
f 223/3/3 217/3/3 215/3/3
f 224/3/3 221/3/3 220/3/3
f 225/2/3 222/2/3 221/2/3
f 225/3/3 221/3/3 224/3/3
f 226/2/3 222/2/3 225/2/3
f 227/3/3 219/3/3 218/3/3
f 228/3/3 219/3/3 227/3/3
f 229/3/3 219/3/3 228/3/3
f 230/5/3 229/5/3 228/5/3
f 230/1/3 228/1/3 227/1/3
f 231/3/3 219/3/3 229/3/3
f 231/5/3 229/5/3 230/5/3
f 233/3/3 217/3/3 223/3/3
f 234/1/3 230/1/3 227/1/3
f 234/3/3 227/3/3 218/3/3
f 234/1/3 231/1/3 230/1/3
f 235/3/3 219/3/3 231/3/3
f 235/1/3 231/1/3 234/1/3
f 236/3/3 233/3/3 232/3/3
f 237/4/3 218/4/3 217/4/3
f 237/3/3 233/3/3 236/3/3
f 237/3/3 217/3/3 233/3/3
f 238/3/3 234/3/3 218/3/3
f 238/4/3 218/4/3 237/4/3
f 238/3/3 235/3/3 234/3/3
f 239/3/3 219/3/3 235/3/3
f 239/3/3 235/3/3 238/3/3
f 242/3/3 241/3/3 240/3/3
f 243/3/3 241/3/3 242/3/3
f 246/2/3 245/2/3 244/2/3
f 247/2/3 245/2/3 246/2/3
f 250/2/3 249/2/3 248/2/3
f 251/2/3 249/2/3 250/2/3
f 255/4/3 253/4/3 252/4/3
f 256/4/3 253/4/3 255/4/3
f 256/4/3 255/4/3 254/4/3
f 257/4/3 253/4/3 256/4/3
f 260/4/3 256/4/3 254/4/3
f 261/4/3 256/4/3 260/4/3
f 262/4/3 256/4/3 261/4/3
f 263/3/3 259/3/3 258/3/3
f 264/4/3 260/4/3 259/4/3
f 264/3/3 259/3/3 263/3/3
f 264/4/3 261/4/3 260/4/3
f 265/4/3 261/4/3 264/4/3
f 266/4/3 261/4/3 265/4/3
f 267/4/3 261/4/3 266/4/3
f 271/4/3 269/4/3 268/4/3
f 272/4/3 269/4/3 271/4/3
f 274/4/3 271/4/3 270/4/3
f 274/4/3 273/4/3 272/4/3
f 274/4/3 272/4/3 271/4/3
f 275/4/3 273/4/3 274/4/3
f 276/4/3 273/4/3 275/4/3
f 277/4/3 273/4/3 276/4/3
f 280/2/3 279/2/3 278/2/3
f 281/2/3 279/2/3 280/2/3
f 285/3/3 283/3/3 282/3/3
f 286/2/3 284/2/3 283/2/3
f 286/3/3 283/3/3 285/3/3
f 287/2/3 284/2/3 286/2/3
f 291/4/3 289/4/3 288/4/3
f 293/4/3 291/4/3 290/4/3
f 294/4/3 289/4/3 291/4/3
f 294/4/3 291/4/3 293/4/3
f 295/4/3 289/4/3 294/4/3
f 296/4/3 293/4/3 292/4/3
f 296/4/3 294/4/3 293/4/3
f 297/4/3 294/4/3 296/4/3
f 300/2/3 299/2/3 298/2/3
f 301/2/3 299/2/3 300/2/3
f 302/4/4 303/4/4 305/4/4
f 304/4/4 305/4/4 307/4/4
f 305/4/4 303/4/4 308/4/4
f 307/4/4 305/4/4 308/4/4
f 308/4/4 303/4/4 309/4/4
f 306/4/4 307/4/4 310/4/4
f 307/4/4 308/4/4 310/4/4
f 310/4/4 308/4/4 311/4/4
f 312/2/4 313/2/4 314/2/4
f 314/2/4 313/2/4 315/2/4
f 316/3/4 317/3/4 319/3/4
f 317/2/4 318/2/4 320/2/4
f 319/3/4 317/3/4 320/3/4
f 320/2/4 318/2/4 321/2/4
f 322/2/4 323/2/4 324/2/4
f 324/2/4 323/2/4 325/2/4
f 326/4/4 327/4/4 329/4/4
f 329/4/4 327/4/4 330/4/4
f 328/4/4 329/4/4 330/4/4
f 330/4/4 327/4/4 331/4/4
f 328/4/4 330/4/4 334/4/4
f 334/4/4 330/4/4 335/4/4
f 335/4/4 330/4/4 336/4/4
f 332/3/4 333/3/4 337/3/4
f 333/4/4 334/4/4 338/4/4
f 337/3/4 333/3/4 338/3/4
f 334/4/4 335/4/4 338/4/4
f 338/4/4 335/4/4 339/4/4
f 339/4/4 335/4/4 340/4/4
f 340/4/4 335/4/4 341/4/4
f 342/4/4 343/4/4 345/4/4
f 345/4/4 343/4/4 346/4/4
f 344/4/4 345/4/4 348/4/4
f 346/4/4 347/4/4 348/4/4
f 345/4/4 346/4/4 348/4/4
f 348/4/4 347/4/4 349/4/4
f 349/4/4 347/4/4 350/4/4
f 350/4/4 347/4/4 351/4/4
f 352/3/4 353/3/4 354/3/4
f 354/3/4 353/3/4 355/3/4
f 356/2/4 357/2/4 358/2/4
f 358/2/4 357/2/4 359/2/4
f 360/2/4 361/2/4 362/2/4
f 362/2/4 361/2/4 363/2/4
f 364/3/4 365/3/4 366/3/4
f 364/3/4 366/3/4 372/3/4
f 369/3/4 370/3/4 373/3/4
f 370/2/4 371/2/4 374/2/4
f 373/3/4 370/3/4 374/3/4
f 374/2/4 371/2/4 375/2/4
f 367/3/4 368/3/4 376/3/4
f 376/3/4 368/3/4 377/3/4
f 377/3/4 368/3/4 378/3/4
f 377/5/4 378/5/4 379/5/4
f 376/1/4 377/1/4 379/1/4
f 378/3/4 368/3/4 380/3/4
f 379/5/4 378/5/4 380/5/4
f 372/3/4 366/3/4 382/3/4
f 376/1/4 379/1/4 383/1/4
f 367/3/4 376/3/4 383/3/4
f 379/1/4 380/1/4 383/1/4
f 380/3/4 368/3/4 384/3/4
f 383/1/4 380/1/4 384/1/4
f 381/3/4 382/3/4 385/3/4
f 366/4/4 367/4/4 386/4/4
f 385/3/4 382/3/4 386/3/4
f 382/3/4 366/3/4 386/3/4
f 367/3/4 383/3/4 387/3/4
f 386/4/4 367/4/4 387/4/4
f 383/3/4 384/3/4 387/3/4
f 384/3/4 368/3/4 388/3/4
f 387/3/4 384/3/4 388/3/4
f 389/4/4 390/4/4 392/4/4
f 391/4/4 392/4/4 394/4/4
f 392/4/4 390/4/4 395/4/4
f 394/4/4 392/4/4 395/4/4
f 395/4/4 390/4/4 396/4/4
f 393/4/4 394/4/4 397/4/4
f 394/4/4 395/4/4 397/4/4
f 397/4/4 395/4/4 398/4/4
f 393/4/4 397/4/4 399/4/4
f 399/4/4 397/4/4 400/4/4
f 399/3/4 400/3/4 403/3/4
f 400/4/4 397/4/4 403/4/4
f 403/4/4 397/4/4 404/4/4
f 401/2/4 402/2/4 405/2/4
f 405/2/4 402/2/4 406/2/4
f 399/3/4 403/3/4 407/3/4
f 403/3/4 404/3/4 407/3/4
f 407/3/4 404/3/4 408/3/4
f 411/2/5 410/2/5 409/2/5
f 412/2/5 410/2/5 411/2/5
f 413/2/5 411/2/5 409/2/5
f 415/2/5 413/2/5 409/2/5
f 415/2/5 414/2/5 413/2/5
f 416/2/5 414/2/5 415/2/5
f 419/2/5 418/2/5 417/2/5
f 420/2/5 418/2/5 419/2/5
f 421/2/5 419/2/5 417/2/5
f 423/2/5 421/2/5 417/2/5
f 423/2/5 422/2/5 421/2/5
f 424/2/5 422/2/5 423/2/5
f 428/4/5 426/4/5 425/4/5
f 429/4/5 426/4/5 428/4/5
f 430/3/5 427/3/5 426/3/5
f 430/4/5 426/4/5 429/4/5
f 431/3/5 427/3/5 430/3/5
f 432/3/5 427/3/5 431/3/5
f 433/3/5 427/3/5 432/3/5
f 436/3/5 430/3/5 429/3/5
f 436/3/5 431/3/5 430/3/5
f 437/3/5 431/3/5 436/3/5
f 438/3/5 434/3/5 433/3/5
f 438/3/5 433/3/5 432/3/5
f 440/3/5 437/3/5 436/3/5
f 440/3/5 438/3/5 437/3/5
f 440/3/5 436/3/5 435/3/5
f 441/3/5 440/3/5 439/3/5
f 442/3/5 438/3/5 440/3/5
f 442/3/5 440/3/5 441/3/5
f 443/3/5 438/3/5 442/3/5
f 444/3/5 438/3/5 443/3/5
f 445/3/5 438/3/5 444/3/5
f 446/3/5 434/3/5 438/3/5
f 446/3/5 438/3/5 445/3/5
f 448/3/5 445/3/5 444/3/5
f 449/3/5 445/3/5 448/3/5
f 450/3/5 445/3/5 449/3/5
f 451/3/5 434/3/5 446/3/5
f 452/3/5 434/3/5 451/3/5
f 453/3/5 434/3/5 452/3/5
f 454/4/5 448/4/5 447/4/5
f 454/4/5 449/4/5 448/4/5
f 455/3/5 450/3/5 449/3/5
f 455/4/5 449/4/5 454/4/5
f 455/3/5 452/3/5 451/3/5
f 455/3/5 451/3/5 450/3/5
f 456/3/5 452/3/5 455/3/5
f 459/4/5 458/4/5 457/4/5
f 460/4/5 458/4/5 459/4/5
f 463/4/5 462/4/5 461/4/5
f 464/4/5 462/4/5 463/4/5
f 467/4/5 466/4/5 465/4/5
f 468/4/5 466/4/5 467/4/5
f 471/4/5 470/4/5 469/4/5
f 472/4/5 470/4/5 471/4/5
f 475/4/5 474/4/5 473/4/5
f 476/4/5 474/4/5 475/4/5
f 479/4/5 478/4/5 477/4/5
f 480/4/5 478/4/5 479/4/5
f 483/2/5 482/2/5 481/2/5
f 484/2/5 482/2/5 483/2/5
f 487/4/5 486/4/5 485/4/5
f 488/4/5 486/4/5 487/4/5
f 491/4/5 490/4/5 489/4/5
f 492/4/5 490/4/5 491/4/5
f 493/2/6 494/2/6 495/2/6
f 495/2/6 494/2/6 496/2/6
f 496/2/6 494/2/6 497/2/6
f 497/2/6 494/2/6 498/2/6
f 496/2/6 497/2/6 500/2/6
f 500/2/6 497/2/6 501/2/6
f 499/2/6 500/2/6 503/2/6
f 501/2/6 502/2/6 503/2/6
f 500/2/6 501/2/6 503/2/6
f 503/2/6 502/2/6 504/2/6
f 505/2/6 506/2/6 507/2/6
f 507/2/6 506/2/6 508/2/6
f 508/2/6 506/2/6 509/2/6
f 509/2/6 506/2/6 510/2/6
f 508/2/6 509/2/6 512/2/6
f 512/2/6 509/2/6 513/2/6
f 511/2/6 512/2/6 515/2/6
f 513/2/6 514/2/6 515/2/6
f 512/2/6 513/2/6 515/2/6
f 515/2/6 514/2/6 516/2/6
f 517/4/6 518/4/6 520/4/6
f 518/3/6 519/3/6 521/3/6
f 520/4/6 518/4/6 521/4/6
f 521/3/6 519/3/6 522/3/6
f 523/4/6 524/4/6 526/4/6
f 524/3/6 525/3/6 527/3/6
f 526/4/6 524/4/6 527/4/6
f 527/3/6 525/3/6 528/3/6
f 529/4/6 530/4/6 531/4/6
f 531/4/6 530/4/6 532/4/6
f 532/3/6 533/3/6 535/3/6
f 534/3/6 535/3/6 536/3/6
f 535/3/6 533/3/6 537/3/6
f 536/3/6 535/3/6 537/3/6
f 537/3/6 533/3/6 539/3/6
f 538/3/6 539/3/6 540/3/6
f 539/3/6 533/3/6 541/3/6
f 540/3/6 539/3/6 541/3/6
f 541/3/6 533/3/6 543/3/6
f 543/3/6 533/3/6 544/3/6
f 542/4/6 543/4/6 545/4/6
f 545/4/6 543/4/6 546/4/6
f 547/4/6 548/4/6 549/4/6
f 549/4/6 548/4/6 550/4/6
f 551/4/6 552/4/6 553/4/6
f 553/4/6 552/4/6 554/4/6
f 555/4/6 556/4/6 557/4/6
f 557/4/6 556/4/6 558/4/6
f 561/4/6 562/4/6 563/4/6
f 563/4/6 562/4/6 564/4/6
f 559/2/6 560/2/6 565/2/6
f 565/2/6 560/2/6 566/2/6
f 567/4/6 568/4/6 569/4/6
f 569/4/6 568/4/6 570/4/6
f 571/3/6 572/3/6 573/3/6
f 573/3/6 572/3/6 574/3/6
f 571/3/6 573/3/6 575/3/6
f 571/3/6 575/3/6 577/3/6
f 575/3/6 576/3/6 577/3/6
f 577/3/6 576/3/6 578/3/6
f 579/4/6 580/4/6 581/4/6
f 581/4/6 580/4/6 582/4/6
f 583/4/6 584/4/6 585/4/6
f 585/4/6 584/4/6 586/4/6
