# MagicaVoxel @ Ephtracy

# group
o 

# material
mtllib house.mtl
usemtl palette

# normals
vn -1 0 0
vn 1 0 0
vn 0 0 1
vn 0 0 -1
vn 0 -1 0
vn 0 1 0

# texcoords
vt 0.0410156 0.5
vt 0.0566406 0.5
vt 0.0605469 0.5

# verts
v -0.5 0 0.5
v -0.5 0 -0.4
v -0.5 0.1 0.4
v -0.5 0.1 -0.3
v -0.5 0.3 0.2
v -0.5 0.3 -0.1
v -0.5 0.4 0.2
v -0.5 0.4 -0.1
v -0.5 1 0.4
v -0.5 1 -0.3
v -0.5 1.1 0.5
v -0.5 1.1 -0.4
v -0.4 0.1 0.4
v -0.4 0.1 -0.3
v -0.4 0.2 0.3
v -0.4 0.2 -0.2
v -0.4 0.3 0.2
v -0.4 0.3 -0.1
v -0.4 0.4 0.2
v -0.4 0.4 -0.1
v -0.4 0.6 0.2
v -0.4 0.6 -0.1
v -0.4 0.8 0.3
v -0.4 0.8 -0.2
v -0.4 1 0.4
v -0.4 1 -0.3
v -0.4 1.1 0.5
v -0.4 1.1 -0.4
v -0.4 1.2 0.5
v -0.4 1.2 -0.4
v -0.3 0.1 -0.3
v -0.3 0.1 -0.4
v -0.3 0.5 -0.4
v -0.3 0.5 -0.5
v -0.3 0.6 -0.4
v -0.3 0.6 -0.5
v -0.3 1 -0.3
v -0.3 1 -0.4
v -0.3 1.2 0.5
v -0.3 1.2 -0.4
v -0.3 1.3 0.5
v -0.3 1.3 -0.4
v -0.2 1.3 0.5
v -0.2 1.3 -0.4
v -0.2 1.4 0.5
v -0.2 1.4 -0.4
v -0.1 1.4 0.5
v -0.1 1.4 -0.4
v -0.1 1.5 0.5
v -0.1 1.5 -0.4
v 0.1 1.2 0.5
v 0.1 1.2 0.4
v 0.1 1.2 -0.3
v 0.1 1.2 -0.4
v 0.1 1.3 0.5
v 0.1 1.3 0.4
v 0.1 1.3 -0.3
v 0.1 1.3 -0.4
v 0.2 0.1 -0.2
v 0.2 0.1 -0.3
v 0.2 0.1 -0.4
v 0.2 0.5 -0.2
v 0.2 0.5 -0.3
v 0.2 0.5 -0.4
v 0.2 0.6 -0.3
v 0.2 0.6 -0.4
v 0.2 0.7 -0.2
v 0.2 0.7 -0.3
v 0.2 0.9 -0.2
v 0.2 0.9 -0.3
v 0.2 1 -0.3
v 0.2 1 -0.4
v 0.2 1.1 0.5
v 0.2 1.1 0.4
v 0.2 1.1 -0.3
v 0.2 1.1 -0.4
v 0.2 1.2 0.5
v 0.2 1.2 0.4
v 0.2 1.2 -0.3
v 0.2 1.2 -0.4
v 0.3 0.1 0.3
v 0.3 0.1 -0.2
v 0.3 0.2 0.3
v 0.3 0.2 -0.2
v 0.3 0.4 0.2
v 0.3 0.4 -0.1
v 0.3 0.6 0.2
v 0.3 0.6 -0.1
v 0.3 0.6 -0.2
v 0.3 0.8 0.3
v 0.3 0.8 -0.2
v 0.3 0.9 0.3
v 0.3 0.9 -0.2
v 0.4 0.1 0.5
v 0.4 0.1 0.4
v 0.4 0.1 -0.3
v 0.4 0.1 -0.4
v 0.4 1 0.5
v 0.4 1 0.4
v 0.4 1 -0.3
v 0.4 1 -0.4
v -0.4 0.1 0.5
v -0.4 0.1 0.4
v -0.4 0.1 -0.3
v -0.4 0.1 -0.4
v -0.4 1 0.5
v -0.4 1 0.4
v -0.4 1 -0.3
v -0.4 1 -0.4
v -0.3 0.1 0.3
v -0.3 0.1 -0.2
v -0.3 0.2 0.3
v -0.3 0.2 -0.2
v -0.3 0.4 0.2
v -0.3 0.4 -0.1
v -0.3 0.6 0.2
v -0.3 0.6 -0.1
v -0.3 0.6 -0.2
v -0.3 0.8 0.3
v -0.3 0.8 -0.2
v -0.3 0.9 0.3
v -0.3 0.9 -0.2
v -0.2 0.1 -0.2
v -0.2 0.1 -0.3
v -0.2 0.1 -0.4
v -0.2 0.5 -0.2
v -0.2 0.5 -0.3
v -0.2 0.5 -0.4
v -0.2 0.6 -0.3
v -0.2 0.6 -0.4
v -0.2 0.7 -0.2
v -0.2 0.7 -0.3
v -0.2 0.9 -0.2
v -0.2 0.9 -0.3
v -0.2 1 -0.3
v -0.2 1 -0.4
v -0.2 1.1 0.5
v -0.2 1.1 0.4
v -0.2 1.1 -0.3
v -0.2 1.1 -0.4
v -0.2 1.2 0.5
v -0.2 1.2 0.4
v -0.2 1.2 -0.3
v -0.2 1.2 -0.4
v -0.1 1.2 0.5
v -0.1 1.2 0.4
v -0.1 1.2 -0.3
v -0.1 1.2 -0.4
v -0.1 1.3 0.5
v -0.1 1.3 0.4
v -0.1 1.3 -0.3
v -0.1 1.3 -0.4
v 0.1 1.4 0.5
v 0.1 1.4 -0.4
v 0.1 1.5 0.5
v 0.1 1.5 -0.4
v 0.2 1.3 0.5
v 0.2 1.3 -0.4
v 0.2 1.4 0.5
v 0.2 1.4 -0.4
v 0.3 0.1 -0.3
v 0.3 0.1 -0.4
v 0.3 0.5 -0.4
v 0.3 0.5 -0.5
v 0.3 0.6 -0.4
v 0.3 0.6 -0.5
v 0.3 1 -0.3
v 0.3 1 -0.4
v 0.3 1.2 0.5
v 0.3 1.2 -0.4
v 0.3 1.3 0.5
v 0.3 1.3 -0.4
v 0.4 0.1 0.4
v 0.4 0.1 -0.3
v 0.4 0.2 0.3
v 0.4 0.2 -0.2
v 0.4 0.3 0.2
v 0.4 0.3 -0.1
v 0.4 0.4 0.2
v 0.4 0.4 -0.1
v 0.4 0.6 0.2
v 0.4 0.6 -0.1
v 0.4 0.8 0.3
v 0.4 0.8 -0.2
v 0.4 1 0.4
v 0.4 1 -0.3
v 0.4 1.1 0.5
v 0.4 1.1 -0.4
v 0.4 1.2 0.5
v 0.4 1.2 -0.4
v 0.5 0 0.5
v 0.5 0 -0.4
v 0.5 0.1 0.4
v 0.5 0.1 -0.3
v 0.5 0.3 0.2
v 0.5 0.3 -0.1
v 0.5 0.4 0.2
v 0.5 0.4 -0.1
v 0.5 1 0.4
v 0.5 1 -0.3
v 0.5 1.1 0.5
v 0.5 1.1 -0.4
v -0.5 0 0.5
v -0.5 1.1 0.5
v -0.4 0.1 0.5
v -0.4 1 0.5
v -0.4 1.1 0.5
v -0.4 1.2 0.5
v -0.3 1.2 0.5
v -0.3 1.3 0.5
v -0.2 1.1 0.5
v -0.2 1.2 0.5
v -0.2 1.3 0.5
v -0.2 1.4 0.5
v -0.1 1.2 0.5
v -0.1 1.3 0.5
v -0.1 1.4 0.5
v -0.1 1.5 0.5
v 0.1 1.2 0.5
v 0.1 1.3 0.5
v 0.1 1.4 0.5
v 0.1 1.5 0.5
v 0.2 1.1 0.5
v 0.2 1.2 0.5
v 0.2 1.3 0.5
v 0.2 1.4 0.5
v 0.3 1.2 0.5
v 0.3 1.3 0.5
v 0.4 0.1 0.5
v 0.4 1 0.5
v 0.4 1.1 0.5
v 0.4 1.2 0.5
v 0.5 0 0.5
v 0.5 1.1 0.5
v -0.4 0.1 0.4
v -0.4 1 0.4
v -0.3 0.2 0.4
v -0.3 0.8 0.4
v -0.2 1.1 0.4
v -0.2 1.2 0.4
v -0.1 1.2 0.4
v -0.1 1.3 0.4
v 0.1 1.2 0.4
v 0.1 1.3 0.4
v 0.2 1.1 0.4
v 0.2 1.2 0.4
v 0.3 0.2 0.4
v 0.3 0.8 0.4
v 0.4 0.1 0.4
v 0.4 1 0.4
v -0.5 0.3 0.2
v -0.5 0.4 0.2
v -0.4 0.3 0.2
v -0.4 0.4 0.2
v 0.4 0.3 0.2
v 0.4 0.4 0.2
v 0.5 0.3 0.2
v 0.5 0.4 0.2
v -0.4 0.4 -0.1
v -0.4 0.6 -0.1
v -0.3 0.4 -0.1
v -0.3 0.6 -0.1
v 0.3 0.4 -0.1
v 0.3 0.6 -0.1
v 0.4 0.4 -0.1
v 0.4 0.6 -0.1
v -0.3 0.1 -0.2
v -0.3 0.2 -0.2
v -0.3 0.6 -0.2
v -0.3 0.8 -0.2
v -0.3 0.9 -0.2
v -0.2 0.1 -0.2
v -0.2 0.5 -0.2
v -0.2 0.7 -0.2
v -0.2 0.9 -0.2
v 0.2 0.1 -0.2
v 0.2 0.5 -0.2
v 0.2 0.7 -0.2
v 0.2 0.9 -0.2
v 0.3 0.1 -0.2
v 0.3 0.2 -0.2
v 0.3 0.6 -0.2
v 0.3 0.8 -0.2
v 0.3 0.9 -0.2
v -0.5 0.1 -0.3
v -0.5 1 -0.3
v -0.4 0.1 -0.3
v -0.4 1 -0.3
v 0.4 0.1 -0.3
v 0.4 1 -0.3
v 0.5 0.1 -0.3
v 0.5 1 -0.3
v -0.5 0.1 0.4
v -0.5 1 0.4
v -0.4 0.1 0.4
v -0.4 1 0.4
v 0.4 0.1 0.4
v 0.4 1 0.4
v 0.5 0.1 0.4
v 0.5 1 0.4
v -0.3 0.1 0.3
v -0.3 0.2 0.3
v -0.3 0.8 0.3
v -0.3 0.9 0.3
v 0.3 0.1 0.3
v 0.3 0.2 0.3
v 0.3 0.8 0.3
v 0.3 0.9 0.3
v -0.4 0.4 0.2
v -0.4 0.6 0.2
v -0.3 0.4 0.2
v -0.3 0.6 0.2
v 0.3 0.4 0.2
v 0.3 0.6 0.2
v 0.4 0.4 0.2
v 0.4 0.6 0.2
v -0.5 0.3 -0.1
v -0.5 0.4 -0.1
v -0.4 0.3 -0.1
v -0.4 0.4 -0.1
v 0.4 0.3 -0.1
v 0.4 0.4 -0.1
v 0.5 0.3 -0.1
v 0.5 0.4 -0.1
v -0.4 0.1 -0.3
v -0.4 1 -0.3
v -0.3 0.1 -0.3
v -0.3 1 -0.3
v -0.2 0.6 -0.3
v -0.2 0.7 -0.3
v -0.2 0.9 -0.3
v -0.2 1 -0.3
v -0.2 1.1 -0.3
v -0.2 1.2 -0.3
v -0.1 1.2 -0.3
v -0.1 1.3 -0.3
v 0.1 1.2 -0.3
v 0.1 1.3 -0.3
v 0.2 0.6 -0.3
v 0.2 0.7 -0.3
v 0.2 0.9 -0.3
v 0.2 1 -0.3
v 0.2 1.1 -0.3
v 0.2 1.2 -0.3
v 0.3 0.1 -0.3
v 0.3 1 -0.3
v 0.4 0.1 -0.3
v 0.4 1 -0.3
v -0.5 0 -0.4
v -0.5 1.1 -0.4
v -0.4 0.1 -0.4
v -0.4 1 -0.4
v -0.4 1.1 -0.4
v -0.4 1.2 -0.4
v -0.3 0.1 -0.4
v -0.3 0.5 -0.4
v -0.3 0.6 -0.4
v -0.3 1 -0.4
v -0.3 1.2 -0.4
v -0.3 1.3 -0.4
v -0.2 0.1 -0.4
v -0.2 0.5 -0.4
v -0.2 0.6 -0.4
v -0.2 1 -0.4
v -0.2 1.1 -0.4
v -0.2 1.2 -0.4
v -0.2 1.3 -0.4
v -0.2 1.4 -0.4
v -0.1 1.2 -0.4
v -0.1 1.3 -0.4
v -0.1 1.4 -0.4
v -0.1 1.5 -0.4
v 0.1 1.2 -0.4
v 0.1 1.3 -0.4
v 0.1 1.4 -0.4
v 0.1 1.5 -0.4
v 0.2 0.1 -0.4
v 0.2 0.5 -0.4
v 0.2 0.6 -0.4
v 0.2 1 -0.4
v 0.2 1.1 -0.4
v 0.2 1.2 -0.4
v 0.2 1.3 -0.4
v 0.2 1.4 -0.4
v 0.3 0.1 -0.4
v 0.3 0.5 -0.4
v 0.3 0.6 -0.4
v 0.3 1 -0.4
v 0.3 1.2 -0.4
v 0.3 1.3 -0.4
v 0.4 0.1 -0.4
v 0.4 1 -0.4
v 0.4 1.1 -0.4
v 0.4 1.2 -0.4
v 0.5 0 -0.4
v 0.5 1.1 -0.4
v -0.3 0.5 -0.5
v -0.3 0.6 -0.5
v 0.3 0.5 -0.5
v 0.3 0.6 -0.5
v -0.5 0 0.5
v 0.5 0 0.5
v -0.5 0 -0.4
v 0.5 0 -0.4
v -0.5 0.3 0.2
v -0.4 0.3 0.2
v 0.4 0.3 0.2
v 0.5 0.3 0.2
v -0.5 0.3 -0.1
v -0.4 0.3 -0.1
v 0.4 0.3 -0.1
v 0.5 0.3 -0.1
v -0.2 0.5 -0.2
v 0.2 0.5 -0.2
v -0.2 0.5 -0.3
v 0.2 0.5 -0.3
v -0.3 0.5 -0.4
v -0.2 0.5 -0.4
v 0.2 0.5 -0.4
v 0.3 0.5 -0.4
v -0.3 0.5 -0.5
v 0.3 0.5 -0.5
v -0.4 0.6 0.2
v -0.3 0.6 0.2
v 0.3 0.6 0.2
v 0.4 0.6 0.2
v -0.4 0.6 -0.1
v -0.3 0.6 -0.1
v 0.3 0.6 -0.1
v 0.4 0.6 -0.1
v -0.3 0.9 0.3
v 0.3 0.9 0.3
v -0.3 0.9 -0.2
v -0.2 0.9 -0.2
v 0.2 0.9 -0.2
v 0.3 0.9 -0.2
v -0.2 0.9 -0.3
v 0.2 0.9 -0.3
v -0.4 1 0.5
v 0.4 1 0.5
v -0.5 1 0.4
v -0.4 1 0.4
v 0.4 1 0.4
v 0.5 1 0.4
v -0.5 1 -0.3
v -0.4 1 -0.3
v -0.3 1 -0.3
v -0.2 1 -0.3
v 0.2 1 -0.3
v 0.3 1 -0.3
v 0.4 1 -0.3
v 0.5 1 -0.3
v -0.4 1 -0.4
v -0.3 1 -0.4
v -0.2 1 -0.4
v 0.2 1 -0.4
v 0.3 1 -0.4
v 0.4 1 -0.4
v -0.2 1.2 0.5
v -0.1 1.2 0.5
v 0.1 1.2 0.5
v 0.2 1.2 0.5
v -0.2 1.2 0.4
v -0.1 1.2 0.4
v 0.1 1.2 0.4
v 0.2 1.2 0.4
v -0.2 1.2 -0.3
v -0.1 1.2 -0.3
v 0.1 1.2 -0.3
v 0.2 1.2 -0.3
v -0.2 1.2 -0.4
v -0.1 1.2 -0.4
v 0.1 1.2 -0.4
v 0.2 1.2 -0.4
v -0.1 1.3 0.5
v 0.1 1.3 0.5
v -0.1 1.3 0.4
v 0.1 1.3 0.4
v -0.1 1.3 -0.3
v 0.1 1.3 -0.3
v -0.1 1.3 -0.4
v 0.1 1.3 -0.4
v -0.4 0.1 0.5
v 0.4 0.1 0.5
v -0.5 0.1 0.4
v -0.4 0.1 0.4
v 0.4 0.1 0.4
v 0.5 0.1 0.4
v -0.3 0.1 0.3
v 0.3 0.1 0.3
v -0.3 0.1 -0.2
v -0.2 0.1 -0.2
v 0.2 0.1 -0.2
v 0.3 0.1 -0.2
v -0.5 0.1 -0.3
v -0.4 0.1 -0.3
v -0.3 0.1 -0.3
v -0.2 0.1 -0.3
v 0.2 0.1 -0.3
v 0.3 0.1 -0.3
v 0.4 0.1 -0.3
v 0.5 0.1 -0.3
v -0.4 0.1 -0.4
v -0.3 0.1 -0.4
v -0.2 0.1 -0.4
v 0.2 0.1 -0.4
v 0.3 0.1 -0.4
v 0.4 0.1 -0.4
v -0.5 0.4 0.2
v -0.4 0.4 0.2
v -0.3 0.4 0.2
v 0.3 0.4 0.2
v 0.4 0.4 0.2
v 0.5 0.4 0.2
v -0.5 0.4 -0.1
v -0.4 0.4 -0.1
v -0.3 0.4 -0.1
v 0.3 0.4 -0.1
v 0.4 0.4 -0.1
v 0.5 0.4 -0.1
v -0.2 0.6 -0.3
v 0.2 0.6 -0.3
v -0.3 0.6 -0.4
v -0.2 0.6 -0.4
v 0.2 0.6 -0.4
v 0.3 0.6 -0.4
v -0.3 0.6 -0.5
v 0.3 0.6 -0.5
v -0.2 0.7 -0.2
v 0.2 0.7 -0.2
v -0.2 0.7 -0.3
v 0.2 0.7 -0.3
v -0.5 1.1 0.5
v -0.4 1.1 0.5
v -0.2 1.1 0.5
v 0.2 1.1 0.5
v 0.4 1.1 0.5
v 0.5 1.1 0.5
v -0.2 1.1 0.4
v 0.2 1.1 0.4
v -0.2 1.1 -0.3
v 0.2 1.1 -0.3
v -0.5 1.1 -0.4
v -0.4 1.1 -0.4
v -0.2 1.1 -0.4
v 0.2 1.1 -0.4
v 0.4 1.1 -0.4
v 0.5 1.1 -0.4
v -0.4 1.2 0.5
v -0.3 1.2 0.5
v 0.3 1.2 0.5
v 0.4 1.2 0.5
v -0.4 1.2 -0.4
v -0.3 1.2 -0.4
v 0.3 1.2 -0.4
v 0.4 1.2 -0.4
v -0.3 1.3 0.5
v -0.2 1.3 0.5
v 0.2 1.3 0.5
v 0.3 1.3 0.5
v -0.3 1.3 -0.4
v -0.2 1.3 -0.4
v 0.2 1.3 -0.4
v 0.3 1.3 -0.4
v -0.2 1.4 0.5
v -0.1 1.4 0.5
v 0.1 1.4 0.5
v 0.2 1.4 0.5
v -0.2 1.4 -0.4
v -0.1 1.4 -0.4
v 0.1 1.4 -0.4
v 0.2 1.4 -0.4
v -0.1 1.5 0.5
v 0.1 1.5 0.5
v -0.1 1.5 -0.4
v 0.1 1.5 -0.4

# faces
f 3/1/1 2/1/1 1/1/1
f 4/1/1 2/1/1 3/1/1
f 7/1/1 6/1/1 5/1/1
f 8/1/1 6/1/1 7/1/1
f 9/1/1 3/1/1 1/1/1
f 10/1/1 2/1/1 4/1/1
f 11/1/1 9/1/1 1/1/1
f 11/1/1 10/1/1 9/1/1
f 12/1/1 2/1/1 10/1/1
f 12/1/1 10/1/1 11/1/1
f 15/2/1 14/2/1 13/2/1
f 16/2/1 14/2/1 15/2/1
f 17/3/1 16/3/1 15/3/1
f 18/3/1 16/3/1 17/3/1
f 19/3/1 17/3/1 15/3/1
f 20/3/1 16/3/1 18/3/1
f 21/3/1 19/3/1 15/3/1
f 22/3/1 16/3/1 20/3/1
f 23/2/1 15/2/1 13/2/1
f 23/3/1 22/3/1 21/3/1
f 23/3/1 21/3/1 15/3/1
f 24/3/1 16/3/1 22/3/1
f 24/3/1 22/3/1 23/3/1
f 24/2/1 14/2/1 16/2/1
f 25/2/1 23/2/1 13/2/1
f 25/2/1 24/2/1 23/2/1
f 26/2/1 14/2/1 24/2/1
f 26/2/1 24/2/1 25/2/1
f 29/1/1 28/1/1 27/1/1
f 30/1/1 28/1/1 29/1/1
f 33/1/1 32/1/1 31/1/1
f 35/1/1 33/1/1 31/1/1
f 35/1/1 34/1/1 33/1/1
f 36/1/1 34/1/1 35/1/1
f 37/1/1 35/1/1 31/1/1
f 38/1/1 35/1/1 37/1/1
f 41/1/1 40/1/1 39/1/1
f 42/1/1 40/1/1 41/1/1
f 45/1/1 44/1/1 43/1/1
f 46/1/1 44/1/1 45/1/1
f 49/1/1 48/1/1 47/1/1
f 50/1/1 48/1/1 49/1/1
f 55/1/1 52/1/1 51/1/1
f 56/1/1 52/1/1 55/1/1
f 57/1/1 54/1/1 53/1/1
f 58/1/1 54/1/1 57/1/1
f 62/2/1 60/2/1 59/2/1
f 63/1/1 61/1/1 60/1/1
f 63/2/1 60/2/1 62/2/1
f 64/1/1 61/1/1 63/1/1
f 68/1/1 66/1/1 65/1/1
f 69/3/1 68/3/1 67/3/1
f 70/1/1 66/1/1 68/1/1
f 70/3/1 68/3/1 69/3/1
f 71/1/1 66/1/1 70/1/1
f 72/1/1 66/1/1 71/1/1
f 77/1/1 74/1/1 73/1/1
f 78/1/1 74/1/1 77/1/1
f 79/1/1 76/1/1 75/1/1
f 80/1/1 76/1/1 79/1/1
f 83/2/1 82/2/1 81/2/1
f 84/2/1 82/2/1 83/2/1
f 85/3/1 84/3/1 83/3/1
f 86/3/1 84/3/1 85/3/1
f 87/3/1 85/3/1 83/3/1
f 88/3/1 84/3/1 86/3/1
f 89/3/1 84/3/1 88/3/1
f 90/3/1 87/3/1 83/3/1
f 90/3/1 88/3/1 87/3/1
f 90/3/1 89/3/1 88/3/1
f 91/3/1 89/3/1 90/3/1
f 92/2/1 91/2/1 90/2/1
f 93/2/1 91/2/1 92/2/1
f 98/1/1 95/1/1 94/1/1
f 99/1/1 95/1/1 98/1/1
f 100/1/1 97/1/1 96/1/1
f 101/1/1 97/1/1 100/1/1
f 102/1/2 103/1/2 106/1/2
f 106/1/2 103/1/2 107/1/2
f 104/1/2 105/1/2 108/1/2
f 108/1/2 105/1/2 109/1/2
f 110/2/2 111/2/2 112/2/2
f 112/2/2 111/2/2 113/2/2
f 112/3/2 113/3/2 114/3/2
f 114/3/2 113/3/2 115/3/2
f 112/3/2 114/3/2 116/3/2
f 115/3/2 113/3/2 117/3/2
f 117/3/2 113/3/2 118/3/2
f 112/3/2 116/3/2 119/3/2
f 116/3/2 117/3/2 119/3/2
f 117/3/2 118/3/2 119/3/2
f 119/3/2 118/3/2 120/3/2
f 119/2/2 120/2/2 121/2/2
f 121/2/2 120/2/2 122/2/2
f 123/2/2 124/2/2 126/2/2
f 124/1/2 125/1/2 127/1/2
f 126/2/2 124/2/2 127/2/2
f 127/1/2 125/1/2 128/1/2
f 129/1/2 130/1/2 132/1/2
f 131/3/2 132/3/2 133/3/2
f 132/1/2 130/1/2 134/1/2
f 133/3/2 132/3/2 134/3/2
f 134/1/2 130/1/2 135/1/2
f 135/1/2 130/1/2 136/1/2
f 137/1/2 138/1/2 141/1/2
f 141/1/2 138/1/2 142/1/2
f 139/1/2 140/1/2 143/1/2
f 143/1/2 140/1/2 144/1/2
f 145/1/2 146/1/2 149/1/2
f 149/1/2 146/1/2 150/1/2
f 147/1/2 148/1/2 151/1/2
f 151/1/2 148/1/2 152/1/2
f 153/1/2 154/1/2 155/1/2
f 155/1/2 154/1/2 156/1/2
f 157/1/2 158/1/2 159/1/2
f 159/1/2 158/1/2 160/1/2
f 161/1/2 162/1/2 163/1/2
f 161/1/2 163/1/2 165/1/2
f 163/1/2 164/1/2 165/1/2
f 165/1/2 164/1/2 166/1/2
f 161/1/2 165/1/2 167/1/2
f 167/1/2 165/1/2 168/1/2
f 169/1/2 170/1/2 171/1/2
f 171/1/2 170/1/2 172/1/2
f 173/2/2 174/2/2 175/2/2
f 175/2/2 174/2/2 176/2/2
f 175/3/2 176/3/2 177/3/2
f 177/3/2 176/3/2 178/3/2
f 175/3/2 177/3/2 179/3/2
f 178/3/2 176/3/2 180/3/2
f 175/3/2 179/3/2 181/3/2
f 180/3/2 176/3/2 182/3/2
f 173/2/2 175/2/2 183/2/2
f 181/3/2 182/3/2 183/3/2
f 175/3/2 181/3/2 183/3/2
f 182/3/2 176/3/2 184/3/2
f 183/3/2 182/3/2 184/3/2
f 176/2/2 174/2/2 184/2/2
f 173/2/2 183/2/2 185/2/2
f 183/2/2 184/2/2 185/2/2
f 184/2/2 174/2/2 186/2/2
f 185/2/2 184/2/2 186/2/2
f 187/1/2 188/1/2 189/1/2
f 189/1/2 188/1/2 190/1/2
f 191/1/2 192/1/2 193/1/2
f 193/1/2 192/1/2 194/1/2
f 195/1/2 196/1/2 197/1/2
f 197/1/2 196/1/2 198/1/2
f 191/1/2 193/1/2 199/1/2
f 194/1/2 192/1/2 200/1/2
f 191/1/2 199/1/2 201/1/2
f 199/1/2 200/1/2 201/1/2
f 200/1/2 192/1/2 202/1/2
f 201/1/2 200/1/2 202/1/2
f 205/1/3 204/1/3 203/1/3
f 206/1/3 204/1/3 205/1/3
f 207/1/3 204/1/3 206/1/3
f 209/1/3 208/1/3 207/1/3
f 209/1/3 207/1/3 206/1/3
f 211/1/3 209/1/3 206/1/3
f 211/1/3 210/1/3 209/1/3
f 212/1/3 210/1/3 211/1/3
f 213/1/3 210/1/3 212/1/3
f 215/1/3 214/1/3 213/1/3
f 215/1/3 213/1/3 212/1/3
f 216/1/3 214/1/3 215/1/3
f 217/1/3 214/1/3 216/1/3
f 220/1/3 218/1/3 217/1/3
f 220/1/3 217/1/3 216/1/3
f 221/1/3 218/1/3 220/1/3
f 222/1/3 218/1/3 221/1/3
f 223/1/3 211/1/3 206/1/3
f 224/1/3 220/1/3 219/1/3
f 224/1/3 221/1/3 220/1/3
f 225/1/3 221/1/3 224/1/3
f 226/1/3 221/1/3 225/1/3
f 227/1/3 224/1/3 223/1/3
f 227/1/3 225/1/3 224/1/3
f 228/1/3 225/1/3 227/1/3
f 229/1/3 205/1/3 203/1/3
f 230/1/3 223/1/3 206/1/3
f 230/1/3 227/1/3 223/1/3
f 231/1/3 227/1/3 230/1/3
f 232/1/3 227/1/3 231/1/3
f 233/1/3 229/1/3 203/1/3
f 233/1/3 230/1/3 229/1/3
f 233/1/3 231/1/3 230/1/3
f 234/1/3 231/1/3 233/1/3
f 237/2/3 236/2/3 235/2/3
f 238/2/3 236/2/3 237/2/3
f 241/2/3 240/2/3 239/2/3
f 243/2/3 241/2/3 239/2/3
f 243/2/3 242/2/3 241/2/3
f 244/2/3 242/2/3 243/2/3
f 245/2/3 243/2/3 239/2/3
f 246/2/3 243/2/3 245/2/3
f 247/2/3 237/2/3 235/2/3
f 247/3/3 238/3/3 237/3/3
f 248/2/3 236/2/3 238/2/3
f 248/3/3 238/3/3 247/3/3
f 249/2/3 247/2/3 235/2/3
f 249/2/3 248/2/3 247/2/3
f 250/2/3 236/2/3 248/2/3
f 250/2/3 248/2/3 249/2/3
f 253/1/3 252/1/3 251/1/3
f 254/1/3 252/1/3 253/1/3
f 257/1/3 256/1/3 255/1/3
f 258/1/3 256/1/3 257/1/3
f 261/3/3 260/3/3 259/3/3
f 262/3/3 260/3/3 261/3/3
f 265/3/3 264/3/3 263/3/3
f 266/3/3 264/3/3 265/3/3
f 272/2/3 268/2/3 267/2/3
f 272/2/3 269/2/3 268/2/3
f 273/2/3 269/2/3 272/2/3
f 274/3/3 271/3/3 270/3/3
f 274/3/3 270/3/3 269/3/3
f 275/3/3 271/3/3 274/3/3
f 277/2/3 269/2/3 273/2/3
f 278/3/3 274/3/3 269/3/3
f 280/2/3 277/2/3 276/2/3
f 281/2/3 277/2/3 280/2/3
f 282/3/3 279/3/3 278/3/3
f 282/2/3 277/2/3 281/2/3
f 282/2/3 269/2/3 277/2/3
f 282/3/3 278/3/3 269/3/3
f 283/3/3 279/3/3 282/3/3
f 284/3/3 279/3/3 283/3/3
f 287/1/3 286/1/3 285/1/3
f 288/1/3 286/1/3 287/1/3
f 291/1/3 290/1/3 289/1/3
f 292/1/3 290/1/3 291/1/3
f 293/1/4 294/1/4 295/1/4
f 295/1/4 294/1/4 296/1/4
f 297/1/4 298/1/4 299/1/4
f 299/1/4 298/1/4 300/1/4
f 301/2/4 302/2/4 305/2/4
f 302/3/4 303/3/4 306/3/4
f 305/2/4 302/2/4 306/2/4
f 303/2/4 304/2/4 307/2/4
f 306/3/4 303/3/4 307/3/4
f 307/2/4 304/2/4 308/2/4
f 309/3/4 310/3/4 311/3/4
f 311/3/4 310/3/4 312/3/4
f 313/3/4 314/3/4 315/3/4
f 315/3/4 314/3/4 316/3/4
f 317/1/4 318/1/4 319/1/4
f 319/1/4 318/1/4 320/1/4
f 321/1/4 322/1/4 323/1/4
f 323/1/4 322/1/4 324/1/4
f 325/2/4 326/2/4 327/2/4
f 327/2/4 326/2/4 328/2/4
f 333/2/4 334/2/4 335/2/4
f 333/2/4 335/2/4 337/2/4
f 335/2/4 336/2/4 337/2/4
f 337/2/4 336/2/4 338/2/4
f 329/3/4 330/3/4 339/3/4
f 339/3/4 330/3/4 340/3/4
f 331/3/4 332/3/4 341/3/4
f 341/3/4 332/3/4 342/3/4
f 333/2/4 337/2/4 343/2/4
f 343/2/4 337/2/4 344/2/4
f 345/2/4 346/2/4 347/2/4
f 347/2/4 346/2/4 348/2/4
f 349/1/4 350/1/4 351/1/4
f 351/1/4 350/1/4 352/1/4
f 352/1/4 350/1/4 353/1/4
f 349/1/4 351/1/4 355/1/4
f 353/1/4 354/1/4 358/1/4
f 352/1/4 353/1/4 358/1/4
f 358/1/4 354/1/4 359/1/4
f 355/1/4 356/1/4 361/1/4
f 349/1/4 355/1/4 361/1/4
f 361/1/4 356/1/4 362/1/4
f 359/1/4 360/1/4 363/1/4
f 358/1/4 359/1/4 363/1/4
f 357/1/4 358/1/4 363/1/4
f 363/1/4 360/1/4 364/1/4
f 364/1/4 360/1/4 365/1/4
f 365/1/4 360/1/4 366/1/4
f 366/1/4 360/1/4 367/1/4
f 367/1/4 368/1/4 369/1/4
f 366/1/4 367/1/4 369/1/4
f 369/1/4 368/1/4 370/1/4
f 370/1/4 368/1/4 371/1/4
f 371/1/4 372/1/4 374/1/4
f 370/1/4 371/1/4 374/1/4
f 374/1/4 372/1/4 375/1/4
f 375/1/4 372/1/4 376/1/4
f 349/1/4 361/1/4 377/1/4
f 364/1/4 365/1/4 380/1/4
f 380/1/4 365/1/4 381/1/4
f 373/1/4 374/1/4 382/1/4
f 374/1/4 375/1/4 382/1/4
f 382/1/4 375/1/4 383/1/4
f 383/1/4 375/1/4 384/1/4
f 377/1/4 378/1/4 385/1/4
f 349/1/4 377/1/4 385/1/4
f 385/1/4 378/1/4 386/1/4
f 380/1/4 381/1/4 387/1/4
f 379/1/4 380/1/4 387/1/4
f 382/1/4 383/1/4 387/1/4
f 381/1/4 382/1/4 387/1/4
f 387/1/4 383/1/4 388/1/4
f 388/1/4 383/1/4 389/1/4
f 389/1/4 383/1/4 390/1/4
f 349/1/4 385/1/4 391/1/4
f 388/1/4 389/1/4 392/1/4
f 392/1/4 389/1/4 393/1/4
f 393/1/4 389/1/4 394/1/4
f 349/1/4 391/1/4 395/1/4
f 391/1/4 392/1/4 395/1/4
f 392/1/4 393/1/4 395/1/4
f 395/1/4 393/1/4 396/1/4
f 397/1/4 398/1/4 399/1/4
f 399/1/4 398/1/4 400/1/4
f 403/1/5 402/1/5 401/1/5
f 404/1/5 402/1/5 403/1/5
f 409/1/5 406/1/5 405/1/5
f 410/1/5 406/1/5 409/1/5
f 411/1/5 408/1/5 407/1/5
f 412/1/5 408/1/5 411/1/5
f 415/2/5 414/2/5 413/2/5
f 416/2/5 414/2/5 415/2/5
f 418/1/5 416/1/5 415/1/5
f 419/1/5 416/1/5 418/1/5
f 421/1/5 419/1/5 418/1/5
f 421/1/5 420/1/5 419/1/5
f 421/1/5 418/1/5 417/1/5
f 422/1/5 420/1/5 421/1/5
f 427/3/5 424/3/5 423/3/5
f 428/3/5 424/3/5 427/3/5
f 429/3/5 426/3/5 425/3/5
f 430/3/5 426/3/5 429/3/5
f 433/3/5 432/3/5 431/3/5
f 434/3/5 432/3/5 433/3/5
f 435/3/5 432/3/5 434/3/5
f 436/3/5 432/3/5 435/3/5
f 437/3/5 435/3/5 434/3/5
f 438/3/5 435/3/5 437/3/5
f 442/1/5 440/1/5 439/1/5
f 443/1/5 440/1/5 442/1/5
f 445/1/5 442/1/5 441/1/5
f 446/1/5 442/1/5 445/1/5
f 451/1/5 444/1/5 443/1/5
f 452/1/5 444/1/5 451/1/5
f 453/1/5 447/1/5 446/1/5
f 454/1/5 447/1/5 453/1/5
f 455/1/5 449/1/5 448/1/5
f 456/1/5 449/1/5 455/1/5
f 457/1/5 451/1/5 450/1/5
f 458/1/5 451/1/5 457/1/5
f 463/1/5 460/1/5 459/1/5
f 464/1/5 460/1/5 463/1/5
f 465/1/5 462/1/5 461/1/5
f 466/1/5 462/1/5 465/1/5
f 471/1/5 468/1/5 467/1/5
f 472/1/5 468/1/5 471/1/5
f 473/1/5 470/1/5 469/1/5
f 474/1/5 470/1/5 473/1/5
f 477/1/5 476/1/5 475/1/5
f 478/1/5 476/1/5 477/1/5
f 481/1/5 480/1/5 479/1/5
f 482/1/5 480/1/5 481/1/5
f 483/1/6 484/1/6 486/1/6
f 486/1/6 484/1/6 487/1/6
f 489/1/6 490/1/6 491/1/6
f 491/1/6 490/1/6 492/1/6
f 492/1/6 490/1/6 493/1/6
f 493/1/6 490/1/6 494/1/6
f 485/1/6 486/1/6 495/1/6
f 495/1/6 486/1/6 496/1/6
f 492/1/6 493/1/6 498/1/6
f 498/1/6 493/1/6 499/1/6
f 487/1/6 488/1/6 501/1/6
f 501/1/6 488/1/6 502/1/6
f 496/1/6 497/1/6 503/1/6
f 503/1/6 497/1/6 504/1/6
f 498/1/6 499/1/6 505/1/6
f 505/1/6 499/1/6 506/1/6
f 500/1/6 501/1/6 507/1/6
f 507/1/6 501/1/6 508/1/6
f 509/1/6 510/1/6 515/1/6
f 510/3/6 511/3/6 516/3/6
f 515/1/6 510/1/6 516/1/6
f 516/3/6 511/3/6 517/3/6
f 512/3/6 513/3/6 518/3/6
f 513/1/6 514/1/6 519/1/6
f 518/3/6 513/3/6 519/3/6
f 519/1/6 514/1/6 520/1/6
f 521/1/6 522/1/6 524/1/6
f 524/1/6 522/1/6 525/1/6
f 523/1/6 524/1/6 527/1/6
f 525/1/6 526/1/6 527/1/6
f 524/1/6 525/1/6 527/1/6
f 527/1/6 526/1/6 528/1/6
f 529/3/6 530/3/6 531/3/6
f 531/3/6 530/3/6 532/3/6
f 535/1/6 536/1/6 539/1/6
f 539/1/6 536/1/6 540/1/6
f 533/1/6 534/1/6 543/1/6
f 543/1/6 534/1/6 544/1/6
f 541/1/6 542/1/6 545/1/6
f 545/1/6 542/1/6 546/1/6
f 537/1/6 538/1/6 547/1/6
f 547/1/6 538/1/6 548/1/6
f 549/1/6 550/1/6 553/1/6
f 553/1/6 550/1/6 554/1/6
f 551/1/6 552/1/6 555/1/6
f 555/1/6 552/1/6 556/1/6
f 557/1/6 558/1/6 561/1/6
f 561/1/6 558/1/6 562/1/6
f 559/1/6 560/1/6 563/1/6
f 563/1/6 560/1/6 564/1/6
f 565/1/6 566/1/6 569/1/6
f 569/1/6 566/1/6 570/1/6
f 567/1/6 568/1/6 571/1/6
f 571/1/6 568/1/6 572/1/6
f 573/1/6 574/1/6 575/1/6
f 575/1/6 574/1/6 576/1/6
