# MagicaVoxel @ Ephtracy

# group
o 

# material
mtllib duck_level_01.mtl
usemtl palette

# normals
vn -1 0 0
vn 1 0 0
vn 0 0 1
vn 0 0 -1
vn 0 -1 0
vn 0 1 0

# texcoords
vt 0.0371094 0.5
vt 0.0761719 0.5
vt 0.0839844 0.5

# verts
v -0.3 0.2 0.1
v -0.3 0.2 -0.3
v -0.3 0.5 0.1
v -0.3 0.5 0
v -0.3 0.5 -0.2
v -0.3 0.5 -0.3
v -0.3 0.6 0
v -0.3 0.6 -0.2
v -0.1 0.2 0.2
v -0.1 0.2 0.1
v -0.1 0.2 -0.3
v -0.1 0.2 -0.4
v -0.1 0.4 0.2
v -0.1 0.4 0.1
v -0.1 0.4 -0.3
v -0.1 0.4 -0.4
v 0 0 0.2
v 0 0 0
v 0 0 -0.2
v 0 0 -0.4
v 0 0.1 0.2
v 0 0.1 0.1
v 0 0.1 -0.3
v 0 0.1 -0.4
v 0 0.2 0.1
v 0 0.2 0
v 0 0.2 -0.2
v 0 0.2 -0.3
v 0 0.5 0.1
v 0 0.5 -0.3
v 0 0.8 0.1
v 0 0.8 -0.3
v -0.1 0.5 0
v -0.1 0.5 -0.2
v -0.1 0.6 0
v -0.1 0.6 -0.2
v 0.1 0.1 0.1
v 0.1 0.1 0
v 0.1 0.1 -0.2
v 0.1 0.1 -0.3
v 0.1 0.2 0.1
v 0.1 0.2 0
v 0.1 0.2 -0.2
v 0.1 0.2 -0.3
v 0.2 0.2 0.2
v 0.2 0.2 0.1
v 0.2 0.2 -0.3
v 0.2 0.2 -0.4
v 0.2 0.4 0.2
v 0.2 0.4 0.1
v 0.2 0.4 -0.3
v 0.2 0.4 -0.4
v 0.3 0 0.2
v 0.3 0 0
v 0.3 0 -0.2
v 0.3 0 -0.4
v 0.3 0.1 0.2
v 0.3 0.1 0
v 0.3 0.1 -0.2
v 0.3 0.1 -0.4
v 0.3 0.2 0.1
v 0.3 0.2 -0.3
v 0.3 0.5 0
v 0.3 0.5 -0.2
v 0.3 0.6 0
v 0.3 0.6 -0.2
v 0.3 0.8 0.1
v 0.3 0.8 -0.3
v 0.5 0.5 0
v 0.5 0.5 -0.2
v 0.5 0.6 0
v 0.5 0.6 -0.2
v -0.1 0.2 0.2
v -0.1 0.4 0.2
v 0 0 0.2
v 0 0.1 0.2
v 0.2 0.2 0.2
v 0.2 0.4 0.2
v 0.3 0 0.2
v 0.3 0.1 0.2
v -0.3 0.2 0.1
v -0.3 0.5 0.1
v -0.1 0.2 0.1
v -0.1 0.4 0.1
v 0 0.1 0.1
v 0 0.2 0.1
v 0 0.5 0.1
v 0 0.8 0.1
v 0.1 0.1 0.1
v 0.1 0.2 0.1
v 0.1 0.6 0.1
v 0.1 0.7 0.1
v 0.2 0.2 0.1
v 0.2 0.4 0.1
v 0.2 0.6 0.1
v 0.2 0.7 0.1
v 0.3 0.2 0.1
v 0.3 0.8 0.1
v -0.3 0.5 0
v -0.3 0.6 0
v -0.1 0.5 0
v -0.1 0.6 0
v 0.3 0.5 0
v 0.3 0.6 0
v 0.5 0.5 0
v 0.5 0.6 0
v 0 0 -0.2
v 0 0.2 -0.2
v 0.1 0.1 -0.2
v 0.1 0.2 -0.2
v 0.3 0 -0.2
v 0.3 0.1 -0.2
v 0 0 0
v 0 0.2 0
v 0.1 0.1 0
v 0.1 0.2 0
v 0.3 0 0
v 0.3 0.1 0
v -0.3 0.5 -0.2
v -0.3 0.6 -0.2
v -0.1 0.5 -0.2
v -0.1 0.6 -0.2
v 0.3 0.5 -0.2
v 0.3 0.6 -0.2
v 0.5 0.5 -0.2
v 0.5 0.6 -0.2
v -0.3 0.2 -0.3
v -0.3 0.5 -0.3
v -0.1 0.2 -0.3
v -0.1 0.4 -0.3
v 0 0.1 -0.3
v 0 0.2 -0.3
v 0 0.5 -0.3
v 0 0.8 -0.3
v 0.1 0.1 -0.3
v 0.1 0.2 -0.3
v 0.1 0.6 -0.3
v 0.1 0.7 -0.3
v 0.2 0.2 -0.3
v 0.2 0.4 -0.3
v 0.2 0.6 -0.3
v 0.2 0.7 -0.3
v 0.3 0.2 -0.3
v 0.3 0.8 -0.3
v -0.1 0.2 -0.4
v -0.1 0.4 -0.4
v 0 0 -0.4
v 0 0.1 -0.4
v 0.2 0.2 -0.4
v 0.2 0.4 -0.4
v 0.3 0 -0.4
v 0.3 0.1 -0.4
v 0 0 0.2
v 0.3 0 0.2
v 0 0 0
v 0.3 0 0
v 0 0 -0.2
v 0.3 0 -0.2
v 0 0 -0.4
v 0.3 0 -0.4
v -0.1 0.2 0.2
v 0.2 0.2 0.2
v -0.3 0.2 0.1
v -0.1 0.2 0.1
v 0 0.2 0.1
v 0.1 0.2 0.1
v 0.2 0.2 0.1
v 0.3 0.2 0.1
v 0 0.2 0
v 0.1 0.2 0
v 0 0.2 -0.2
v 0.1 0.2 -0.2
v -0.3 0.2 -0.3
v -0.1 0.2 -0.3
v 0 0.2 -0.3
v 0.1 0.2 -0.3
v 0.2 0.2 -0.3
v 0.3 0.2 -0.3
v -0.1 0.2 -0.4
v 0.2 0.2 -0.4
v 0.3 0.5 0
v 0.5 0.5 0
v 0.3 0.5 -0.2
v 0.5 0.5 -0.2
v 0 0.1 0.2
v 0.3 0.1 0.2
v 0 0.1 0.1
v 0.1 0.1 0.1
v 0.1 0.1 0
v 0.3 0.1 0
v 0.1 0.1 -0.2
v 0.3 0.1 -0.2
v 0 0.1 -0.3
v 0.1 0.1 -0.3
v 0 0.1 -0.4
v 0.3 0.1 -0.4
v -0.1 0.4 0.2
v 0.2 0.4 0.2
v -0.1 0.4 0.1
v 0.2 0.4 0.1
v -0.1 0.4 -0.3
v 0.2 0.4 -0.3
v -0.1 0.4 -0.4
v 0.2 0.4 -0.4
v -0.3 0.5 0.1
v 0 0.5 0.1
v -0.3 0.5 0
v -0.1 0.5 0
v -0.3 0.5 -0.2
v -0.1 0.5 -0.2
v -0.3 0.5 -0.3
v 0 0.5 -0.3
v -0.3 0.6 0
v -0.1 0.6 0
v 0.3 0.6 0
v 0.5 0.6 0
v -0.3 0.6 -0.2
v -0.1 0.6 -0.2
v 0.3 0.6 -0.2
v 0.5 0.6 -0.2
v 0 0.8 0.1
v 0.3 0.8 0.1
v 0 0.8 -0.3
v 0.3 0.8 -0.3

# faces
f 3/2/1 2/2/1 1/2/1
f 4/2/1 2/2/1 3/2/1
f 5/2/1 2/2/1 4/2/1
f 6/2/1 2/2/1 5/2/1
f 7/2/1 5/2/1 4/2/1
f 8/2/1 5/2/1 7/2/1
f 13/2/1 10/2/1 9/2/1
f 14/2/1 10/2/1 13/2/1
f 15/2/1 12/2/1 11/2/1
f 16/2/1 12/2/1 15/2/1
f 21/3/1 18/3/1 17/3/1
f 22/3/1 18/3/1 21/3/1
f 23/3/1 20/3/1 19/3/1
f 24/3/1 20/3/1 23/3/1
f 25/3/1 18/3/1 22/3/1
f 26/3/1 18/3/1 25/3/1
f 27/3/1 23/3/1 19/3/1
f 28/3/1 23/3/1 27/3/1
f 31/2/1 30/2/1 29/2/1
f 32/2/1 30/2/1 31/2/1
f 33/2/2 34/2/2 35/2/2
f 35/2/2 34/2/2 36/2/2
f 37/3/2 38/3/2 41/3/2
f 41/3/2 38/3/2 42/3/2
f 39/3/2 40/3/2 43/3/2
f 43/3/2 40/3/2 44/3/2
f 45/2/2 46/2/2 49/2/2
f 49/2/2 46/2/2 50/2/2
f 47/2/2 48/2/2 51/2/2
f 51/2/2 48/2/2 52/2/2
f 53/3/2 54/3/2 57/3/2
f 57/3/2 54/3/2 58/3/2
f 55/3/2 56/3/2 59/3/2
f 59/3/2 56/3/2 60/3/2
f 61/2/2 62/2/2 63/2/2
f 63/2/2 62/2/2 64/2/2
f 61/2/2 63/2/2 65/2/2
f 64/2/2 62/2/2 66/2/2
f 61/2/2 65/2/2 67/2/2
f 65/2/2 66/2/2 67/2/2
f 66/2/2 62/2/2 68/2/2
f 67/2/2 66/2/2 68/2/2
f 69/3/2 70/3/2 71/3/2
f 71/3/2 70/3/2 72/3/2
f 77/2/3 74/2/3 73/2/3
f 78/2/3 74/2/3 77/2/3
f 79/3/3 76/3/3 75/3/3
f 80/3/3 76/3/3 79/3/3
f 83/2/3 82/2/3 81/2/3
f 84/2/3 82/2/3 83/2/3
f 87/2/3 82/2/3 84/2/3
f 89/3/3 86/3/3 85/3/3
f 90/3/3 86/3/3 89/3/3
f 91/2/3 88/2/3 87/2/3
f 92/2/3 88/2/3 91/2/3
f 94/2/3 87/2/3 84/2/3
f 94/2/3 91/2/3 87/2/3
f 95/1/3 92/1/3 91/1/3
f 95/2/3 91/2/3 94/2/3
f 96/2/3 88/2/3 92/2/3
f 96/1/3 92/1/3 95/1/3
f 97/2/3 95/2/3 94/2/3
f 97/2/3 94/2/3 93/2/3
f 97/2/3 96/2/3 95/2/3
f 98/2/3 88/2/3 96/2/3
f 98/2/3 96/2/3 97/2/3
f 101/2/3 100/2/3 99/2/3
f 102/2/3 100/2/3 101/2/3
f 105/3/3 104/3/3 103/3/3
f 106/3/3 104/3/3 105/3/3
f 109/3/3 108/3/3 107/3/3
f 110/3/3 108/3/3 109/3/3
f 111/3/3 109/3/3 107/3/3
f 112/3/3 109/3/3 111/3/3
f 113/3/4 114/3/4 115/3/4
f 115/3/4 114/3/4 116/3/4
f 113/3/4 115/3/4 117/3/4
f 117/3/4 115/3/4 118/3/4
f 119/2/4 120/2/4 121/2/4
f 121/2/4 120/2/4 122/2/4
f 123/3/4 124/3/4 125/3/4
f 125/3/4 124/3/4 126/3/4
f 127/2/4 128/2/4 129/2/4
f 129/2/4 128/2/4 130/2/4
f 130/2/4 128/2/4 133/2/4
f 131/3/4 132/3/4 135/3/4
f 135/3/4 132/3/4 136/3/4
f 133/2/4 134/2/4 137/2/4
f 137/2/4 134/2/4 138/2/4
f 130/2/4 133/2/4 140/2/4
f 133/2/4 137/2/4 140/2/4
f 137/1/4 138/1/4 141/1/4
f 140/2/4 137/2/4 141/2/4
f 138/2/4 134/2/4 142/2/4
f 141/1/4 138/1/4 142/1/4
f 140/2/4 141/2/4 143/2/4
f 139/2/4 140/2/4 143/2/4
f 141/2/4 142/2/4 143/2/4
f 142/2/4 134/2/4 144/2/4
f 143/2/4 142/2/4 144/2/4
f 145/2/4 146/2/4 149/2/4
f 149/2/4 146/2/4 150/2/4
f 147/3/4 148/3/4 151/3/4
f 151/3/4 148/3/4 152/3/4
f 155/3/5 154/3/5 153/3/5
f 156/3/5 154/3/5 155/3/5
f 159/3/5 158/3/5 157/3/5
f 160/3/5 158/3/5 159/3/5
f 164/2/5 162/2/5 161/2/5
f 165/2/5 162/2/5 164/2/5
f 166/2/5 162/2/5 165/2/5
f 167/2/5 162/2/5 166/2/5
f 169/2/5 164/2/5 163/2/5
f 169/2/5 165/2/5 164/2/5
f 170/2/5 168/2/5 167/2/5
f 170/2/5 167/2/5 166/2/5
f 171/2/5 169/2/5 163/2/5
f 171/2/5 170/2/5 169/2/5
f 172/2/5 168/2/5 170/2/5
f 172/2/5 170/2/5 171/2/5
f 173/2/5 171/2/5 163/2/5
f 174/2/5 171/2/5 173/2/5
f 175/2/5 171/2/5 174/2/5
f 176/2/5 168/2/5 172/2/5
f 177/2/5 168/2/5 176/2/5
f 178/2/5 168/2/5 177/2/5
f 179/2/5 175/2/5 174/2/5
f 179/2/5 177/2/5 176/2/5
f 179/2/5 176/2/5 175/2/5
f 180/2/5 177/2/5 179/2/5
f 183/3/5 182/3/5 181/3/5
f 184/3/5 182/3/5 183/3/5
f 185/3/6 186/3/6 187/3/6
f 187/3/6 186/3/6 188/3/6
f 188/3/6 186/3/6 189/3/6
f 189/3/6 186/3/6 190/3/6
f 191/3/6 192/3/6 194/3/6
f 193/3/6 194/3/6 195/3/6
f 194/3/6 192/3/6 196/3/6
f 195/3/6 194/3/6 196/3/6
f 197/2/6 198/2/6 199/2/6
f 199/2/6 198/2/6 200/2/6
f 201/2/6 202/2/6 203/2/6
f 203/2/6 202/2/6 204/2/6
f 205/2/6 206/2/6 207/2/6
f 207/2/6 206/2/6 208/2/6
f 208/2/6 206/2/6 210/2/6
f 209/2/6 210/2/6 211/2/6
f 210/2/6 206/2/6 212/2/6
f 211/2/6 210/2/6 212/2/6
f 213/2/6 214/2/6 217/2/6
f 217/2/6 214/2/6 218/2/6
f 215/3/6 216/3/6 219/3/6
f 219/3/6 216/3/6 220/3/6
f 221/2/6 222/2/6 223/2/6
f 223/2/6 222/2/6 224/2/6
